<svg width="48" height="68" viewBox="0 0 48 68" fill="none" xmlns="http://www.w3.org/2000/svg">
<path fill-rule="evenodd" clip-rule="evenodd" d="M24.0781 36.6289C20.7885 36.6289 17.6334 35.3226 15.3069 32.9968C12.9803 30.671 11.673 27.5163 11.673 24.2266C11.673 20.9368 12.9803 17.7821 15.3069 15.4563C17.6334 13.1306 20.7885 11.8242 24.0781 11.8242C27.3677 11.8242 30.5229 13.1306 32.8494 15.4563C35.176 17.7821 36.4833 20.9368 36.4833 24.2266C36.4833 25.8554 36.1623 27.4684 35.5388 28.9732C34.9153 30.478 34.0014 31.8452 32.8494 32.9968C31.6974 34.1484 30.3299 35.0619 28.8249 35.685C27.32 36.3082 25.707 36.6289 24.0781 36.6289ZM21.411 64.4788C23.044 66.4493 24.0781 67.5938 24.0781 67.5938C24.0781 67.5938 25.1122 66.4493 26.7452 64.4788C32.8737 57.0838 47.4375 38.0554 47.4375 24.2266C47.4375 18.0333 44.9764 12.0938 40.5957 7.71451C36.215 3.33525 30.2734 0.875 24.0781 0.875C17.8828 0.875 11.9413 3.33525 7.56055 7.71451C3.17982 12.0938 0.71875 18.0333 0.71875 24.2266C0.71875 38.0554 15.2826 57.0838 21.411 64.4788ZM24.0781 61.3276C24.2386 61.132 24.4041 60.9293 24.5741 60.7199C26.7117 58.087 29.5551 54.4061 32.3905 50.2051C35.2337 45.9925 38.0186 41.3304 40.0804 36.7299C42.166 32.076 43.375 27.7827 43.375 24.2266C43.375 19.1112 41.3423 14.2051 37.7236 10.5876C34.1048 6.97006 29.1964 4.9375 24.0781 4.9375C18.9598 4.9375 14.0515 6.97006 10.4327 10.5876C6.81398 14.2051 4.78125 19.1112 4.78125 24.2266C4.78125 27.7827 5.99028 32.076 8.0759 36.7299C10.1376 41.3304 12.9226 45.9925 15.7658 50.2051C18.6011 54.4061 21.4446 58.087 23.5822 60.7199C23.7522 60.9293 23.9176 61.132 24.0781 61.3276ZM18.179 30.1237C19.7435 31.6877 21.8655 32.5664 24.0781 32.5664C25.1737 32.5664 26.2585 32.3507 27.2707 31.9316C28.2829 31.5125 29.2026 30.8982 29.9773 30.1237C30.7519 29.3493 31.3665 28.4299 31.7857 27.4181C32.205 26.4062 32.4208 25.3218 32.4208 24.2266C32.4208 22.0147 31.5418 19.8934 29.9773 18.3294C28.4127 16.7654 26.2907 15.8867 24.0781 15.8867C21.8655 15.8867 19.7435 16.7654 18.179 18.3294C16.6144 19.8934 15.7355 22.0147 15.7355 24.2266C15.7355 26.4384 16.6144 28.5597 18.179 30.1237Z" fill="#29A8D3"/>
</svg>
