<svg width="72" height="58" viewBox="0 0 72 58" fill="none" xmlns="http://www.w3.org/2000/svg">
<path fill-rule="evenodd" clip-rule="evenodd" d="M9.17718 4.36475C6.61711 4.36475 4.54176 6.44009 4.54176 9.00016V49.0002C4.54176 51.5602 6.61711 53.6356 9.17718 53.6356H62.5105C65.0706 53.6356 67.1459 51.5602 67.1459 49.0002V9.00016C67.1459 6.44009 65.0706 4.36475 62.5105 4.36475H9.17718ZM0.479261 9.00016C0.479261 4.19644 4.37345 0.302246 9.17718 0.302246H62.5105C67.3142 0.302246 71.2084 4.19644 71.2084 9.00016V49.0002C71.2084 53.8039 67.3142 57.6981 62.5105 57.6981H9.17718C4.37345 57.6981 0.479261 53.8039 0.479261 49.0002V9.00016Z" fill="#29A8D3"/>
<path fill-rule="evenodd" clip-rule="evenodd" d="M0.796116 11.2441C1.39778 10.2972 2.65309 10.0174 3.59993 10.6191L33.4939 29.6153C34.1986 30.0555 35.0129 30.2889 35.8438 30.2889C36.6748 30.2889 37.489 30.0555 38.1937 29.6153L38.1987 29.6122L68.0878 10.6191C69.0346 10.0174 70.2899 10.2972 70.8916 11.2441C71.4932 12.1909 71.2134 13.4462 70.2666 14.0479L40.3666 33.0479L40.3556 33.0548C39.0033 33.9021 37.4397 34.3514 35.8438 34.3514C34.248 34.3514 32.6844 33.9021 31.3321 33.0548L31.3211 33.0479L1.4211 14.0479C0.474262 13.4462 0.194449 12.1909 0.796116 11.2441Z" fill="#29A8D3"/>
</svg>
