<svg width="68" height="67" viewBox="0 0 68 67" fill="none" xmlns="http://www.w3.org/2000/svg">
<path fill-rule="evenodd" clip-rule="evenodd" d="M17.9221 4.64118C12.1163 4.94047 7.64718 9.40811 6.11631 14.0007C5.26688 16.549 4.875 18.5692 4.875 20.7589C4.875 22.9815 5.2783 25.4859 6.1599 29.0123C7.04798 32.5646 7.89736 35.505 9.56971 38.6407C11.2429 41.7778 13.7941 45.2075 18.1841 49.5974C22.574 53.9874 26.0037 56.5386 29.1408 58.2118C32.2765 59.8841 35.2169 60.7335 38.7692 61.6216C42.2956 62.5032 44.8 62.9065 47.0226 62.9065C49.2123 62.9065 51.2325 62.5146 53.7808 61.6652C58.3734 60.1343 62.841 55.6652 63.1403 49.8594C62.808 49.5926 62.29 49.2421 61.5915 48.823C60.1313 47.9469 58.1242 46.914 56.0204 45.9175C53.924 44.9244 51.7778 43.9893 50.0577 43.3067C49.1954 42.9645 48.4609 42.6941 47.9038 42.5126C47.6239 42.4214 47.411 42.3601 47.2617 42.3235C47.2214 42.3137 47.191 42.307 47.1694 42.3025C46.7869 42.3211 46.2782 42.478 45.5928 42.8849C44.8626 43.3185 44.0801 43.9452 43.2022 44.7134C42.8921 44.9848 42.5505 45.2919 42.1967 45.61C41.6313 46.1184 41.0344 46.6551 40.4835 47.1199C39.5493 47.9081 38.5059 48.7049 37.3909 49.2624C35.874 50.0208 34.2678 49.9025 32.9154 49.5085C31.5646 49.1149 30.2645 48.3922 29.1435 47.636C26.9133 46.1314 25.0089 44.227 24.2977 43.5157L24.1808 43.3988C22.4617 41.6799 20.5311 39.7497 19.2862 37.7578C17.9834 35.6734 17.1709 33.0871 18.5191 30.3906C19.0766 29.2756 19.8734 28.2322 20.6616 27.298C21.1264 26.7471 21.6631 26.1502 22.1714 25.5849C22.4896 25.231 22.7967 24.8894 23.0681 24.5792C23.8363 23.7013 24.463 22.9189 24.8966 22.1887C25.3035 21.5034 25.4604 20.9946 25.479 20.6121C25.4745 20.5905 25.4678 20.5601 25.458 20.5198C25.4214 20.3705 25.36 20.1576 25.2689 19.8777C25.0874 19.3206 24.817 18.5861 24.4748 17.7238C23.7922 16.0037 22.8571 13.8575 21.864 11.7611C20.8675 9.65733 19.8346 7.65017 18.9585 6.19C18.5394 5.49146 18.1889 4.97353 17.9221 4.64118ZM2.26229 12.716C4.26551 6.70637 10.2957 0.562744 18.5418 0.562744C19.354 0.562744 19.942 0.981292 20.193 1.1784C20.505 1.42353 20.7792 1.72051 21.0078 1.99699C21.4718 2.55815 21.9603 3.29686 22.4421 4.09986C23.4161 5.72324 24.5137 7.86485 25.5355 10.022C26.5608 12.1865 27.5318 14.4134 28.2508 16.2253C28.6095 17.129 28.9137 17.9503 29.1317 18.6196C29.2402 18.9529 29.3348 19.2709 29.4043 19.5552C29.4634 19.797 29.5434 20.1644 29.5434 20.5346C29.5434 21.9382 29.0199 23.2014 28.3897 24.2628C27.758 25.3267 26.9271 26.3383 26.1255 27.2544C25.7673 27.6637 25.4312 28.0367 25.1065 28.3971C24.6471 28.907 24.2105 29.3916 23.7665 29.9178C23.041 30.7777 22.4922 31.5284 22.1527 32.2074C21.7068 33.0991 21.7913 34.101 22.7312 35.6047C23.7044 37.1618 25.3103 38.783 27.1544 40.6271C27.8554 41.3281 29.5272 42.9943 31.4155 44.2682C32.3621 44.9068 33.2665 45.3794 34.0517 45.6081C34.8354 45.8365 35.2968 45.7674 35.5741 45.6288C36.2531 45.2893 37.0038 44.7405 37.8637 44.015C38.3899 43.5709 38.8745 43.1344 39.3844 42.675C39.7447 42.3503 40.1178 42.0142 40.5271 41.656C41.4432 40.8544 42.4548 40.0235 43.5187 39.3918C44.5801 38.7616 45.8433 38.2381 47.2469 38.2381C47.6171 38.2381 47.9845 38.3181 48.2263 38.3772C48.5106 38.4467 48.8285 38.5412 49.1619 38.6498C49.8312 38.8678 50.6525 39.172 51.5562 39.5306C53.3681 40.2497 55.595 41.2207 57.7595 42.246C59.9166 43.2678 62.0583 44.3654 63.6816 45.3394C64.4846 45.8212 65.2233 46.3097 65.7845 46.7737C66.061 47.0022 66.358 47.2765 66.6031 47.5885C66.8002 47.8395 67.2188 48.4275 67.2188 49.2397C67.2188 57.4858 61.0751 63.516 55.0654 65.5192C52.2315 66.4638 49.7665 66.969 47.0226 66.969C44.3115 66.969 41.4337 66.4753 37.7839 65.5628C34.1599 64.6568 30.8211 63.7121 27.229 61.7963C23.6384 59.8814 19.8918 57.0504 15.3114 52.4701C10.7311 47.8897 7.90013 44.1431 5.98515 40.5525C4.06937 36.9604 3.12468 33.6215 2.2187 29.9976C1.30624 26.3478 0.8125 23.47 0.8125 20.7589C0.8125 18.0149 1.31765 15.55 2.26229 12.716Z" fill="#29A8D3"/>
</svg>
