<svg width="80" height="65" viewBox="0 0 80 65" fill="none" xmlns="http://www.w3.org/2000/svg">
<path fill-rule="evenodd" clip-rule="evenodd" d="M64.9716 42.5613L64.9713 42.5595C64.8471 41.6964 64.1464 40.8432 62.9716 40.5686L62.9693 40.5681C57.1537 39.205 53.0016 36.7149 50.2996 33.1707C48.4239 30.7103 47.4347 27.9846 46.928 25.2947C45.2536 25.1451 42.9867 25.0312 39.9684 25.0312C36.9501 25.0312 34.6832 25.1451 33.0088 25.2947C32.502 27.9846 31.5128 30.7103 29.6371 33.1707C26.9356 36.7144 22.7842 39.2043 16.9697 40.5675C15.7866 40.8463 15.0891 41.7006 14.9654 42.5595L12.9772 56.3293M8.95638 55.7488L10.9444 41.9808C11.3284 39.3128 13.3884 37.2367 16.0404 36.6128C26.3484 34.1968 28.9324 28.2608 29.3684 21.6768C31.1964 21.3368 34.4484 20.9688 39.9684 20.9688C45.4884 20.9688 48.7404 21.3368 50.5684 21.6768C51.0044 28.2608 53.5884 34.1968 63.8964 36.6128C66.5484 37.2328 68.6084 39.3128 68.9924 41.9808L70.9804 55.7488C71.6804 60.5968 68.1164 64.9688 63.1684 64.9688H16.7684C11.8164 64.9688 8.25638 60.5968 8.95638 55.7488ZM62.6509 17.9708V17.9727C62.6509 18.3895 62.6484 18.766 62.6462 19.1117C62.6394 20.1533 62.6344 20.9151 62.7038 21.6534C62.7863 22.5324 62.949 22.9078 63.0863 23.1156C63.3217 23.4719 64.4342 24.7073 70.1494 25.4478C72.1766 25.71 73.2605 25.4523 73.7995 25.2098C74.2649 25.0004 74.5925 24.6871 74.8804 24.1204C75.6365 22.6319 75.7554 20.2374 75.7064 17.035C75.7066 17.0474 75.7056 17.0442 75.7002 17.0258C75.6652 16.9063 75.4422 16.1466 74.1092 14.8471C72.6874 13.4612 70.4151 11.8833 67.2602 10.394C60.9764 7.42784 51.6525 5.03334 39.969 5.03125M79.7684 16.9688C79.6724 10.9688 64.4004 0.97275 39.9684 0.96875C15.5324 0.97275 0.260376 10.9688 0.168376 16.9688C0.0763763 22.9688 0.252377 30.7767 10.3084 29.4767C21.4165 28.0377 21.3903 24.2948 21.3528 18.9384C21.3506 18.6221 21.3484 18.3002 21.3484 17.9727C21.3484 13.8767 30.9164 12.8888 39.9684 12.8888C49.0204 12.8888 58.5844 13.8767 58.5884 17.9727C58.5884 18.3001 58.5861 18.6221 58.5839 18.9384C58.5465 24.2948 58.5203 28.0377 69.6284 29.4767C79.6804 30.7767 79.8604 22.9688 79.7684 16.9688ZM39.9677 5.03125C28.2822 5.03334 18.9572 7.42789 12.6735 10.394C9.51866 11.8832 7.24685 13.4611 5.82574 14.8467C4.49467 16.1446 4.27183 16.9034 4.23664 17.0232C4.23099 17.0424 4.23018 17.0452 4.2304 17.031C4.18125 20.2367 4.29906 22.6319 5.05515 24.1209C5.34275 24.6873 5.67004 25.0004 6.13537 25.2097C6.67452 25.4522 7.759 25.71 9.78753 25.4478C15.5025 24.7073 16.6151 23.4719 16.8505 23.1156C16.9878 22.9078 17.1504 22.5324 17.233 21.6534C17.3023 20.9151 17.2973 20.1533 17.2906 19.1117C17.2883 18.766 17.2859 18.3895 17.2859 17.9727C17.2859 15.066 19.0819 13.1316 20.7855 12.0347C22.4278 10.9772 24.4616 10.3427 26.4084 9.92335C30.3653 9.071 35.3697 8.82625 39.9684 8.82625C44.567 8.82625 49.5706 9.071 53.527 9.92337C55.4736 10.3428 57.507 10.9773 59.1493 12.0345C60.8526 13.131 62.648 15.0639 62.6509 17.9688V17.9708M12.9772 56.3293C12.6106 58.8682 14.4307 60.9062 16.7684 60.9062H63.1684C65.5035 60.9062 67.326 58.8668 66.9596 56.3293L64.9716 42.5613M39.9684 58.9993C32.1838 58.9993 25.8019 52.7393 25.8019 44.9368C25.8019 37.1342 32.1838 30.8742 39.9684 30.8742C47.753 30.8742 54.1349 37.1342 54.1349 44.9368C54.1349 52.7403 47.7479 58.9993 39.9684 58.9993ZM29.8644 44.9368C29.8644 50.4568 34.3884 54.9368 39.9684 54.9368C45.5444 54.9368 50.0724 50.4568 50.0724 44.9368C50.0724 39.4168 45.5484 34.9367 39.9684 34.9367C34.3884 34.9367 29.8644 39.4168 29.8644 44.9368Z" fill="#29A8D3"/>
</svg>
