<svg width="76" height="64" viewBox="0 0 76 64" fill="none" xmlns="http://www.w3.org/2000/svg">
<path fill-rule="evenodd" clip-rule="evenodd" d="M70.1751 0.284223C70.2101 0.282404 70.2452 0.281494 70.2803 0.281494C71.9961 0.281494 73.6418 1.05834 74.6253 2.6357C75.5744 4.15804 75.7218 6.12002 75.2069 8.22407L64.5388 58.3668C64.5386 58.3679 64.5383 58.369 64.5381 58.3701C64.1073 60.4269 63.1468 62.3057 61.2772 63.1471C59.4156 63.9849 57.4015 63.4557 55.6703 62.4928C55.5949 62.4509 55.5224 62.4043 55.453 62.3532L29.9948 43.6031C29.6405 43.3462 29.3512 43.0095 29.1505 42.6197C28.9471 42.2244 28.8409 41.7863 28.8409 41.3416C28.8409 40.8968 28.9471 40.4587 29.1505 40.0635C29.3311 39.7127 29.5834 39.405 29.8901 39.1597L48.9618 21.9844L22.7348 38.4853C22.3687 38.7199 21.9548 38.8695 21.5235 38.9232C21.0957 38.9766 20.6614 38.9343 20.252 38.7995L4.61858 33.8692C3.58327 33.566 2.61255 33.1096 1.88071 32.4309C1.10579 31.7122 0.543921 30.6709 0.674708 29.4239C0.796735 28.2604 1.48159 27.3399 2.24182 26.6736C3.01729 25.9939 4.04221 25.4211 5.24182 24.9437C5.2491 24.9408 5.2564 24.938 5.26371 24.9351L67.8986 0.842392C68.6152 0.514524 69.3876 0.32508 70.1751 0.284223ZM60.2953 15.0179C60.3038 15.0173 60.3079 15.0174 60.3079 15.0176C60.3078 15.0178 60.3036 15.0181 60.2953 15.0179ZM70.3317 4.34473C70.0648 4.36519 69.8039 4.43442 69.5622 4.54898C69.5161 4.57083 69.4692 4.59094 69.4215 4.60927L6.73367 28.7224C5.86684 29.0683 5.31055 29.4058 4.9847 29.6735C5.16715 29.7667 5.42403 29.8728 5.77498 29.9748C5.78984 29.9791 5.80466 29.9836 5.81942 29.9882L21.0015 34.7761L57.47 11.8318C57.4792 11.826 57.4884 11.8203 57.4977 11.8147C58.1201 11.4369 58.768 11.1805 59.3926 11.0518C59.9782 10.9311 60.7029 10.891 61.3964 11.1287C61.7548 11.2516 62.1987 11.4828 62.5601 11.9135C62.949 12.3771 63.146 12.9616 63.1212 13.5649C63.0778 14.6174 62.3998 15.3558 61.9521 15.7529L33.6445 41.2457L57.7519 59.0009C58.9304 59.6322 59.4621 59.509 59.6099 59.4425C59.753 59.3781 60.2465 59.0451 60.5623 57.5352L60.5638 57.5283L71.2401 7.34702C71.2448 7.32486 71.2499 7.30278 71.2553 7.28079C71.6104 5.84897 71.3715 5.09564 71.1779 4.78506C71.0195 4.53102 70.7656 4.35735 70.3317 4.34473ZM4.68122 29.9883C4.68118 29.9883 4.6817 29.9871 4.68295 29.9849C4.68189 29.9871 4.68127 29.9883 4.68122 29.9883Z" fill="#29A8D3"/>
</svg>
