<svg width="80" height="80" viewBox="0 0 80 80" fill="none" xmlns="http://www.w3.org/2000/svg">
<path d="M16.7188 26.2735C17.0934 44.6182 26.2249 55.625 42.2401 55.625H43.1767V45.1356C49.0536 45.7236 53.5023 50.051 55.2817 55.625H63.5938C62.7417 52.4575 61.2305 49.5074 59.1601 46.9696C57.0896 44.4317 54.5069 42.3638 51.5823 40.9022C54.2024 39.299 56.4653 37.1704 58.2298 34.6494C59.9943 32.1284 61.2225 29.2691 61.8377 26.25H54.2984C52.6594 32.0827 47.7892 37.3744 43.1767 37.8683V26.2735H35.6139V46.5938C30.9311 45.4178 25.0308 39.7263 24.7732 26.2735H16.7188Z" fill="#29A8D3"/>
<path d="M41.3063 68.5938V72.6562H38.6937V68.5938H41.3063ZM68.5938 41.3063V38.6937C68.5938 31.1993 68.5852 25.985 68.0582 22.0473C67.549 18.2429 66.6212 16.2272 65.2089 14.7859C63.7806 13.3791 61.7754 12.4513 57.9691 11.9418C54.0314 11.4148 48.8118 11.4062 41.3063 11.4062H38.6937C31.1993 11.4062 25.985 11.4148 22.0473 11.9418C18.243 12.451 16.2272 13.3787 14.7859 14.791C13.3791 16.2192 12.4513 18.2246 11.9418 22.0309C11.4148 25.9686 11.4062 31.1882 11.4062 38.6937V41.3063C11.4062 48.8007 11.4148 54.015 11.9418 57.9527C12.451 61.757 13.3787 63.7726 14.791 65.2139C16.2192 66.6208 18.2245 67.5487 22.0309 68.0582C25.9686 68.5852 31.1882 68.5938 38.6937 68.5938V72.6562C24.0269 72.6562 16.6469 72.6562 12.0244 68.1908L11.9156 68.0844C7.62945 63.737 7.36156 56.9787 7.34482 43.9885L7.34375 38.6937C7.34375 23.9113 7.34372 16.531 11.9156 11.9156C16.5528 7.34372 23.9331 7.34375 38.6937 7.34375L43.9923 7.34482C57.0004 7.36156 63.7575 7.62945 68.0844 11.9156C72.6563 16.5528 72.6562 23.9331 72.6562 38.6937L72.6552 43.9923C72.6384 57.0004 72.3705 63.7575 68.0844 68.0844L67.9752 68.1908C63.6239 72.375 56.8704 72.6386 43.9885 72.6552L41.3063 72.6562V68.5938C48.8007 68.5938 54.015 68.5852 57.9527 68.0582C61.757 67.549 63.7726 66.6212 65.2139 65.2089C66.6208 63.7806 67.5487 61.7754 68.0582 57.9691C68.5852 54.0314 68.5938 48.8118 68.5938 41.3063Z" fill="#29A8D3"/>
</svg>
