<svg width="68" height="67" viewBox="0 0 68 67" fill="none" xmlns="http://www.w3.org/2000/svg">
<path fill-rule="evenodd" clip-rule="evenodd" d="M34.0779 4.22816C18.0153 4.22816 4.99403 17.2494 4.99403 33.312C4.99403 39.4031 6.86427 45.0513 10.0617 49.7213L10.6188 50.535L7.66758 59.9041L17.2013 57.0207L17.9966 57.5495C22.6019 60.6116 28.1284 62.3958 34.0779 62.3958C50.1404 62.3958 63.1617 49.3745 63.1617 33.312C63.1617 17.2494 50.1404 4.22816 34.0779 4.22816ZM0.939453 33.312C0.939453 15.0102 15.776 0.173584 34.0779 0.173584C52.3797 0.173584 67.2163 15.0102 67.2163 33.312C67.2163 51.6138 52.3797 66.4504 34.0779 66.4504C27.6512 66.4504 21.6467 64.619 16.5643 61.4493L1.49414 66.0071L6.1647 51.1799C2.85743 46.0233 0.939453 39.8889 0.939453 33.312Z" fill="#29A8D3"/>
<path d="M43.5406 37.2574C44.2725 37.5568 48.3313 39.5529 49.163 39.9521C49.9947 40.3514 50.4937 40.5177 50.7266 40.8837C50.9595 41.2496 50.9595 42.8798 50.2608 44.8093C49.5955 46.7389 46.3019 48.5021 44.705 48.735C43.2745 48.9346 41.478 49.0344 39.5151 48.4023C38.3175 48.0364 36.7871 47.5373 34.8243 46.6724C26.5738 43.1126 21.151 34.7956 20.7518 34.23L20.7453 34.2214C20.3217 33.6566 17.3917 29.7508 17.3917 25.7133C17.3917 21.6545 19.5209 19.6584 20.2528 18.8267C21.0179 17.995 21.8829 17.7954 22.4485 17.7954H24.0454C24.5444 17.8287 25.243 17.6291 25.9084 19.226C26.5738 20.8894 28.2372 24.9481 28.4368 25.3473C28.6364 25.7466 28.7695 26.2123 28.5033 26.7779C28.2372 27.3102 28.0708 27.6761 27.6716 28.1419C27.2724 28.6076 26.8066 29.2065 26.4407 29.5724C26.0082 30.0049 25.609 30.4374 26.0747 31.2691C26.5738 32.1008 28.2039 34.7956 30.6658 36.9913C33.793 39.7858 36.4545 40.6841 37.2862 41.0833C38.1179 41.5158 38.6169 41.4492 39.0827 40.8837C39.5484 40.3514 41.112 38.4883 41.6776 37.6566C42.2432 36.8582 42.7755 36.9913 43.5406 37.2574Z" fill="#29A8D3"/>
</svg>
