<svg width="38" height="42" viewBox="0 0 38 42" fill="none" xmlns="http://www.w3.org/2000/svg">
<path fill-rule="evenodd" clip-rule="evenodd" d="M2.88249 15.7337C1.78684 15.7085 0.68697 16.3777 0.331254 17.42C0.242589 17.6806 0.194035 18.021 0.159202 18.3309C0.122258 18.6692 0.0937584 19.0758 0.0715922 19.5181C0.0260218 20.531 0.00244279 21.5448 0.000871315 22.5587C-0.00757298 24.6789 0.0462596 26.8853 0.123314 27.5693C0.258422 28.767 0.950854 29.8828 1.55251 30.8536L1.62006 30.9618C1.80267 31.256 1.98317 31.5492 2.1605 31.8507C2.95637 33.2071 3.82191 34.1212 4.60618 34.9501L4.62412 34.968C5.06534 35.4334 5.47383 35.8663 5.8591 36.3485C5.486 36.7395 5.27815 37.2582 5.27855 37.7974V39.8987C5.27855 40.456 5.50097 40.9905 5.89687 41.3845C6.29278 41.7786 6.82974 42 7.38963 42H15.8339C16.3938 42 16.9308 41.7786 17.3267 41.3845C17.7226 40.9905 17.945 40.456 17.945 39.8987V37.7974C17.945 37.2656 17.7423 36.7535 17.378 36.3646C17.0137 35.9756 16.5147 35.7386 15.9817 35.7013C15.8392 34.5078 15.6545 32.8961 15.6376 32.437C15.6228 32.0419 15.4898 31.6563 15.3653 31.3632C15.2353 31.0607 15.0851 30.7673 14.9156 30.4849C14.7416 30.1913 14.5556 29.905 14.3583 29.6265L14.3171 29.5697L14.3066 29.554L14.3023 29.5487L14.3002 29.5456L14.2897 29.5309L10.8655 25.2337L10.8338 25.2022V25.2001L10.8296 25.1959L10.8043 25.1685L10.704 25.0561C10.5828 24.9181 10.4652 24.7769 10.3515 24.6327C10.0282 24.2311 9.74636 23.7982 9.5102 23.3404C9.26954 22.8487 8.81355 22.377 8.11372 22.3423C7.51735 22.3108 7.04974 22.626 6.77742 22.8687C6.62736 23.0032 6.49057 23.1516 6.36892 23.312L6.32142 22.6796L6.31615 22.6102C6.2127 21.2255 6.08709 19.5497 5.6786 18.208C5.19939 16.6383 4.13435 15.7642 2.88143 15.7347M13.8537 35.6971C13.7165 34.5414 13.5455 33.0316 13.5265 32.5147L13.5065 32.4233C13.4824 32.34 13.4531 32.2582 13.4189 32.1785C13.3245 31.9613 13.2156 31.7507 13.0927 31.5481C12.9509 31.3069 12.7984 31.072 12.6356 30.8442L12.6082 30.8053L9.26426 26.609L9.24526 26.588L9.11437 26.4409C8.96809 26.2741 8.82625 26.1035 8.68899 25.9292C8.40395 25.5711 8.14268 25.1949 7.90684 24.8029L7.89945 24.8145C7.80445 24.9899 7.75168 25.1507 7.73584 25.2558C7.67779 25.6277 7.70734 25.884 7.7369 26.0227C7.74639 26.0669 7.75873 26.1104 7.77384 26.153V26.1562L9.70759 29.9784L7.91212 31.0701L7.88573 31.0343L7.8129 30.9345C7.43607 30.4172 7.0631 29.8971 6.69403 29.3743C6.05332 28.4665 5.287 27.3529 4.90912 26.6846C4.62623 26.1856 4.49535 25.5247 4.41196 24.9269C4.32614 24.2398 4.26102 23.5502 4.21668 22.8592L4.21457 22.8361C4.1048 21.3673 3.9908 19.9153 3.65725 18.8195C3.51159 18.3414 3.3237 18.1008 3.18859 17.9842C3.09149 17.8938 2.96472 17.8415 2.83182 17.8371C2.54366 17.8298 2.35261 18.0283 2.32833 18.0998C2.32622 18.1061 2.31672 18.1418 2.303 18.2195C2.28381 18.3321 2.26832 18.4453 2.25655 18.5589C2.22594 18.8405 2.19955 19.2019 2.17844 19.6243C2.13502 20.605 2.11285 21.5865 2.11194 22.5682C2.10244 24.7105 2.1605 26.7939 2.22172 27.336C2.29772 28.0137 2.72204 28.7376 3.41659 29.8608L3.41975 29.865C3.5992 30.1549 3.79236 30.467 3.98341 30.7927C4.65156 31.9316 5.37144 32.6954 6.15993 33.5275L6.17787 33.5465C6.76475 34.1663 7.40229 34.8388 8.00395 35.6971H13.8537ZM15.8339 39.8987V37.7974H7.38963V39.8987H15.8339ZM37.6698 17.42C37.313 16.3777 36.2142 15.7085 35.1186 15.7347C33.8667 15.7642 32.8017 16.6383 32.3225 18.208C31.914 19.5497 31.7883 21.2255 31.6849 22.6102L31.6321 23.312C31.5055 23.146 31.3693 22.9983 31.2236 22.8687C30.9513 22.627 30.4848 22.3118 29.8873 22.3412C29.1875 22.377 28.7315 22.8487 28.4909 23.3394C28.2547 23.7971 27.9729 24.2301 27.6496 24.6317C27.5043 24.8156 27.353 24.9947 27.1957 25.1685L27.1714 25.1959L27.1672 25.2011L27.1355 25.2337L23.7124 29.5309L23.7008 29.5456L23.6987 29.5487L23.6956 29.554L23.6839 29.5697C23.6734 29.583 23.6597 29.602 23.6428 29.6265C23.4444 29.9043 23.2584 30.1907 23.0855 30.4849C22.9156 30.7673 22.7651 31.0607 22.6347 31.3632C22.5112 31.6563 22.3782 32.0419 22.3635 32.437C22.3466 32.8961 22.1629 34.5078 22.0194 35.7013C21.4864 35.7386 20.9874 35.9756 20.6231 36.3646C20.2587 36.7535 20.0561 37.2656 20.0561 37.7974V39.8987C20.0561 40.456 20.2785 40.9905 20.6744 41.3845C21.0703 41.7786 21.6072 42 22.1671 42H30.6114C31.1713 42 31.7083 41.7786 32.1042 41.3845C32.5001 40.9905 32.7225 40.456 32.7225 39.8987V37.7974C32.7229 37.2577 32.5146 36.7385 32.1409 36.3475C32.5262 35.8663 32.9347 35.4334 33.3759 34.968L33.3938 34.9491C34.1781 34.1212 35.0436 33.2071 35.8395 31.8507C36.0168 31.5492 36.1984 31.2571 36.3799 30.9618L36.4475 30.8536C37.0491 29.8828 37.7416 28.767 37.8767 27.5693C37.9537 26.8853 38.0076 24.6789 37.9991 22.5587C37.9979 21.5448 37.9747 20.5311 37.9295 19.5181C37.9115 19.1217 37.8823 18.7258 37.8419 18.3309C37.8081 18.021 37.7595 17.6795 37.6698 17.42ZM29.9971 35.6961C30.5988 34.8377 31.2352 34.1653 31.8232 33.5454L31.8401 33.5265C32.6286 32.6944 33.3495 31.9295 34.0166 30.7916C34.2066 30.4659 34.3997 30.1549 34.5802 29.8639L34.5834 29.8587C35.279 28.7366 35.7023 28.0127 35.7783 27.335C35.8395 26.7929 35.8965 24.7094 35.8881 22.5671C35.8838 21.5102 35.8638 20.4658 35.8216 19.6232C35.8004 19.2008 35.7741 18.8394 35.7434 18.5578C35.7317 18.4443 35.7162 18.3311 35.697 18.2185C35.6909 18.1781 35.6824 18.1381 35.6717 18.0987C35.6474 18.0273 35.4563 17.8287 35.1692 17.8361C35.036 17.8402 34.9088 17.8925 34.8114 17.9831C34.6763 18.0987 34.4884 18.3404 34.3427 18.8184C34.0092 19.9132 33.8952 21.3662 33.7854 22.8351L33.7833 22.8582C33.7305 23.5768 33.6757 24.3018 33.588 24.9258C33.5057 25.5237 33.3738 26.1845 33.0919 26.6846C32.713 27.3518 31.9467 28.4655 31.306 29.3743C30.9369 29.8968 30.5639 30.4165 30.1871 30.9335L30.1132 31.0333L30.0879 31.069L28.2924 29.9763L30.2251 26.1551L30.2262 26.152C30.2413 26.1094 30.2536 26.0659 30.2631 26.0217C30.2927 25.883 30.3222 25.6266 30.2642 25.2547C30.2338 25.0998 30.1785 24.9508 30.1005 24.8134L30.0932 24.8019C29.8335 25.2379 29.5474 25.6287 29.3121 25.9282C29.1339 26.154 28.948 26.3737 28.7547 26.5869L28.7347 26.6079L25.3918 30.8043L25.3644 30.8431L25.2514 31.0039C25.1564 31.1436 25.0319 31.3348 24.9073 31.5471C24.7845 31.7496 24.6755 31.9603 24.5812 32.1775C24.5403 32.2755 24.5111 32.3568 24.4935 32.4212C24.4855 32.4517 24.4788 32.4826 24.4735 32.5137C24.4545 33.0306 24.2835 34.5414 24.1463 35.6961H29.9971ZM22.1671 39.8987V37.7974H30.6114V39.8987H22.1671Z" fill="#FCFCFC"/>
<path fill-rule="evenodd" clip-rule="evenodd" d="M11.9667 0.359842C13.4503 -0.123142 15.0504 -0.119847 16.532 0.369248C17.5043 0.690234 18.392 1.20935 19.1417 1.8872C19.9301 1.16856 20.8747 0.629279 21.9105 0.316521C23.4608 -0.151612 25.1245 -0.0847802 26.6319 0.506185C28.1393 1.09715 29.402 2.17758 30.2155 3.57231C31.0168 4.94619 31.336 6.54576 31.124 8.11897C31.002 11.0435 28.8151 13.2407 27.308 14.6551L19.5183 21.9656C19.0065 22.4459 18.2021 22.428 17.7124 21.9255L10.3638 14.3849C10.3396 14.36 10.3164 14.3342 10.2943 14.3075C10.1763 14.165 10.0526 14.0183 9.92513 13.8671C8.59801 12.2932 6.86406 10.2369 6.9369 7.3637C6.9162 5.82047 7.38958 4.31042 8.2889 3.0526C9.19405 1.78662 10.483 0.842824 11.9667 0.359842ZM15.7221 2.80002C14.7629 2.48338 13.727 2.48124 12.7664 2.79393C11.8059 3.10663 10.9713 3.7177 10.3851 4.53752C9.79895 5.35735 9.49217 6.34272 9.50985 7.34898C9.5102 7.36906 9.51008 7.38914 9.50948 7.40921C9.45387 9.2814 10.5514 10.6006 11.9822 12.3205C12.0692 12.4251 12.1575 12.5312 12.2467 12.6389L18.6761 19.2362L25.543 12.7918C27.1393 11.2937 28.5022 9.74362 28.5549 7.96972C28.5563 7.92114 28.5605 7.87267 28.5675 7.82456C28.7163 6.79921 28.5129 5.75392 27.9904 4.85809C27.4679 3.96228 26.657 3.26846 25.6891 2.88899C24.7211 2.50952 23.6529 2.46661 22.6574 2.7672C21.6619 3.0678 20.7974 3.69431 20.2041 4.5453C19.9648 4.88866 19.5721 5.09414 19.1522 5.09575C18.7323 5.09736 18.3381 4.8949 18.096 4.55339C17.5133 3.73117 16.6813 3.11667 15.7221 2.80002Z" fill="#FCFCFC"/>
<path fill-rule="evenodd" clip-rule="evenodd" d="M18.8922 6.04801C19.6027 6.04801 20.1786 6.6213 20.1786 7.3285V9.62628H22.661C23.3715 9.62628 23.9475 10.1996 23.9475 10.9068C23.9475 11.614 23.3715 12.1872 22.661 12.1872H20.1786V14.7159C20.1786 15.4231 19.6027 15.9964 18.8922 15.9964C18.1817 15.9964 17.6058 15.4231 17.6058 14.7159V12.1872H15.2393C14.5288 12.1872 13.9529 11.614 13.9529 10.9068C13.9529 10.1996 14.5288 9.62628 15.2393 9.62628H17.6058V7.3285C17.6058 6.6213 18.1817 6.04801 18.8922 6.04801Z" fill="#FCFCFC"/>
</svg>
