<svg width="34" height="42" viewBox="0 0 34 42" fill="none" xmlns="http://www.w3.org/2000/svg">
<path fill-rule="evenodd" clip-rule="evenodd" d="M2.80814 39.4426H21.6449C20.4827 35.6352 16.7599 32.7541 12.2265 32.7541C7.69317 32.7541 3.97035 35.6352 2.80814 39.4426ZM0.0247171 40.0418C1.00244 34.455 6.09327 30.1967 12.2265 30.1967C18.3598 30.1967 23.4506 34.455 24.4284 40.0418C24.6157 41.1122 23.7116 42 22.6184 42H1.83465C0.741457 42 -0.162608 41.1122 0.0247171 40.0418Z" fill="#FCFCFC"/>
<path fill-rule="evenodd" clip-rule="evenodd" d="M6.59645 15.8472C7.99777 14.4545 9.89837 13.6721 11.8801 13.6721C13.8619 13.6721 15.7625 14.4545 17.1638 15.8472C18.5651 17.2399 19.3524 19.1288 19.3524 21.0984C19.3524 23.0679 18.5651 24.9568 17.1638 26.3495C15.7625 27.7422 13.8619 28.5246 11.8801 28.5246C9.89837 28.5246 7.99777 27.7422 6.59645 26.3495C5.19513 24.9568 4.40788 23.0679 4.40788 21.0984C4.40788 19.1288 5.19513 17.2399 6.59645 15.8472ZM11.8801 16.2295C10.5808 16.2295 9.33475 16.7425 8.416 17.6556C7.49725 18.5686 6.98111 19.8071 6.98111 21.0984C6.98111 22.3897 7.49725 23.6281 8.416 24.5412C9.33475 25.4542 10.5808 25.9672 11.8801 25.9672C13.1794 25.9672 14.4255 25.4542 15.3443 24.5412C16.263 23.6281 16.7792 22.3897 16.7792 21.0984C16.7792 19.8071 16.263 18.5686 15.3443 17.6556C14.4255 16.7425 13.1794 16.2295 11.8801 16.2295Z" fill="#FCFCFC"/>
<path fill-rule="evenodd" clip-rule="evenodd" d="M25.2249 0C25.9355 0 26.5115 0.572488 26.5115 1.27869V7.09887H32.7134C33.424 7.09887 34 7.67136 34 8.37756C34 9.08376 33.424 9.65625 32.7134 9.65625H26.5115V15.9344C26.5115 16.6406 25.9355 17.2131 25.2249 17.2131C24.5143 17.2131 23.9383 16.6406 23.9383 15.9344V9.65625H17.9668C17.2562 9.65625 16.6802 9.08376 16.6802 8.37756C16.6802 7.67136 17.2562 7.09887 17.9668 7.09887H23.9383V1.27869C23.9383 0.572488 24.5143 0 25.2249 0Z" fill="#FCFCFC"/>
</svg>
