<svg width="39" height="39" viewBox="0 0 39 39" fill="none" xmlns="http://www.w3.org/2000/svg">
<path fill-rule="evenodd" clip-rule="evenodd" d="M36.6916 15.7041C36.0136 15.6536 35.5049 15.0631 35.5554 14.3851L36.2953 4.44565L4.45343 36.2875L14.4136 35.5244C15.0915 35.4725 15.6831 35.9799 15.735 36.6578C15.787 37.3357 15.2795 37.9273 14.6017 37.9792L1.32505 38.9964C0.966871 39.0238 0.614573 38.8935 0.360559 38.6394C0.106544 38.3854 -0.0238401 38.0331 0.00360124 37.6749L1.02076 24.3983C1.07269 23.7204 1.66433 23.213 2.34221 23.265C3.02009 23.3169 3.52752 23.9085 3.47559 24.5864L2.71251 34.5466L34.5544 2.70473L24.6149 3.44462C23.9369 3.49509 23.3464 2.98638 23.2959 2.30839C23.2455 1.6304 23.7542 1.03986 24.4322 0.98939L37.6776 0.00340068C38.0349 -0.0231977 38.3861 0.107202 38.6394 0.360559C38.8928 0.613917 39.0232 0.965087 38.9966 1.3224L38.0106 14.5678C37.9601 15.2458 37.3696 15.7545 36.6916 15.7041Z" fill="#FCFCFC"/>
</svg>
