<svg width="40" height="42" viewBox="0 0 40 42" fill="none" xmlns="http://www.w3.org/2000/svg">
<path fill-rule="evenodd" clip-rule="evenodd" d="M2.84199 39.4426H16.4092C15.3793 36.6842 12.7283 34.7213 9.62562 34.7213C6.5229 34.7213 3.87188 36.6842 2.84199 39.4426ZM0.0317138 40.0454C0.933698 35.5495 4.88626 32.164 9.62562 32.164C14.365 32.164 18.3175 35.5495 19.2195 40.0453C19.4332 41.1104 18.5364 42 17.4553 42H1.79589C0.714835 42 -0.181956 41.1104 0.0317138 40.0454Z" fill="#FCFCFC"/>
<path fill-rule="evenodd" clip-rule="evenodd" d="M23.5908 39.4426H37.158C36.1281 36.6842 33.4771 34.7213 30.3744 34.7213C27.2717 34.7213 24.6206 36.6842 23.5908 39.4426ZM20.7805 40.0454C21.6825 35.5495 25.635 32.164 30.3744 32.164C35.1137 32.164 39.0663 35.5495 39.9683 40.0453C40.182 41.1104 39.2852 42 38.2041 42H22.5447C21.4636 42 20.5668 41.1104 20.7805 40.0454Z" fill="#FCFCFC"/>
<path fill-rule="evenodd" clip-rule="evenodd" d="M5.26566 19.9134C6.42199 18.7513 7.99032 18.0985 9.62562 18.0985C11.2609 18.0985 12.8292 18.7513 13.9856 19.9134C15.1419 21.0755 15.7915 22.6517 15.7915 24.2952C15.7915 25.9386 15.1419 27.5148 13.9856 28.6769C12.8292 29.839 11.2609 30.4919 9.62562 30.4919C7.99032 30.4919 6.42199 29.839 5.26566 28.6769C4.10933 27.5148 3.45971 25.9386 3.45971 24.2952C3.45971 22.6517 4.10933 21.0755 5.26566 19.9134ZM9.62562 20.6558C8.6652 20.6558 7.74412 21.0393 7.06501 21.7218C6.38589 22.4043 6.00437 23.33 6.00437 24.2952C6.00437 25.2604 6.38589 26.186 7.06501 26.8686C7.74412 27.5511 8.6652 27.9345 9.62562 27.9345C10.586 27.9345 11.5071 27.5511 12.1862 26.8686C12.8653 26.186 13.2469 25.2604 13.2469 24.2952C13.2469 23.33 12.8653 22.4043 12.1862 21.7218C11.5071 21.0393 10.586 20.6558 9.62562 20.6558Z" fill="#FCFCFC"/>
<path fill-rule="evenodd" clip-rule="evenodd" d="M26.0144 19.9134C27.1708 18.7513 28.7391 18.0985 30.3744 18.0985C32.0097 18.0985 33.578 18.7513 34.7343 19.9134C35.8907 21.0755 36.5403 22.6517 36.5403 24.2952C36.5403 25.9386 35.8907 27.5148 34.7343 28.6769C33.578 29.839 32.0097 30.4919 30.3744 30.4919C28.7391 30.4919 27.1708 29.839 26.0144 28.6769C24.8581 27.5148 24.2085 25.9386 24.2085 24.2952C24.2085 22.6517 24.8581 21.0755 26.0144 19.9134ZM30.3744 20.6558C29.414 20.6558 28.4929 21.0393 27.8138 21.7218C27.1347 22.4043 26.7531 23.33 26.7531 24.2952C26.7531 25.2604 27.1347 26.186 27.8138 26.8686C28.4929 27.5511 29.414 27.9345 30.3744 27.9345C31.3348 27.9345 32.2559 27.5511 32.935 26.8686C33.6141 26.186 33.9956 25.2604 33.9956 24.2952C33.9956 23.33 33.6141 22.4043 32.935 21.7218C32.2559 21.0393 31.3348 20.6558 30.3744 20.6558Z" fill="#FCFCFC"/>
<path fill-rule="evenodd" clip-rule="evenodd" d="M16.1903 0.185021C16.7914 0.55075 16.9837 1.33696 16.6198 1.94108L16.2874 2.4928H24.9072C25.6099 2.4928 26.1795 3.06528 26.1795 3.77148C26.1795 4.47768 25.6099 5.05016 24.9072 5.05016H16.2874L16.6198 5.60188C16.9837 6.206 16.7914 6.99222 16.1903 7.35794C15.5892 7.72367 14.8068 7.53042 14.4429 6.9263L12.9414 4.43369C12.6962 4.02661 12.6962 3.51635 12.9414 3.10927L14.4429 0.616661C14.8068 0.0125447 15.5892 -0.180707 16.1903 0.185021Z" fill="#FCFCFC"/>
<path fill-rule="evenodd" clip-rule="evenodd" d="M23.7255 9.1358C24.3266 8.77007 25.1089 8.96332 25.4728 9.56744L26.9743 12.0601C27.2195 12.4671 27.2195 12.9774 26.9743 13.3845L25.4728 15.8771C25.1089 16.4812 24.3266 16.6744 23.7255 16.3087C23.1243 15.943 22.932 15.1568 23.296 14.5527L23.6283 14.0009H15.0086C14.3059 14.0009 13.7362 13.4285 13.7362 12.7223C13.7362 12.0161 14.3059 11.4436 15.0086 11.4436H23.6283L23.296 10.8919C22.932 10.2877 23.1243 9.50153 23.7255 9.1358Z" fill="#FCFCFC"/>
</svg>
