<svg width="42" height="42" viewBox="0 0 42 42" fill="none" xmlns="http://www.w3.org/2000/svg">
<path fill-rule="evenodd" clip-rule="evenodd" d="M6.15076 6.15076C10.089 2.21249 15.4305 0 21 0C26.5695 0 31.911 2.21249 35.8492 6.15076C39.7875 10.089 42 15.4305 42 21C42 26.5695 39.7875 31.911 35.8492 35.8492C31.911 39.7875 26.5695 42 21 42C15.4305 42 10.089 39.7875 6.15076 35.8492C2.21249 31.911 0 26.5695 0 21C0 15.4305 2.21249 10.089 6.15076 6.15076ZM21 2.56338C16.1103 2.56338 11.4209 4.5058 7.96334 7.96334C4.5058 11.4209 2.56338 16.1103 2.56338 21C2.56338 25.8897 4.5058 30.5791 7.96334 34.0367C11.4209 37.4942 16.1103 39.4366 21 39.4366C25.8897 39.4366 30.5791 37.4942 34.0367 34.0367C37.4942 30.5791 39.4366 25.8897 39.4366 21C39.4366 16.1103 37.4942 11.4209 34.0367 7.96334C30.5791 4.5058 25.8897 2.56338 21 2.56338Z" fill="#FCFCFC"/>
<path fill-rule="evenodd" clip-rule="evenodd" d="M31.781 14.8519C31.0732 14.8546 30.4972 14.2829 30.4946 13.575L30.4931 13.1746L22.9978 21.9416C22.5378 22.4796 21.7287 22.5429 21.1907 22.0829C20.6527 21.6229 20.5894 20.8139 21.0494 20.2759L28.5447 11.5089L28.1489 11.5696C27.4493 11.6771 26.795 11.1969 26.6876 10.4973C26.5802 9.79763 27.0603 9.14336 27.7599 9.03594L31.5674 8.45139C31.9361 8.39478 32.3112 8.50163 32.5947 8.74405C32.8783 8.98647 33.0422 9.3404 33.0436 9.71345L33.0579 13.5655C33.0606 14.2733 32.4889 14.8493 31.781 14.8519Z" fill="#FCFCFC"/>
</svg>
