<svg width="42" height="46" viewBox="0 0 42 46" fill="none" xmlns="http://www.w3.org/2000/svg">
<path fill-rule="evenodd" clip-rule="evenodd" d="M3.35478 16.6129C2.15534 16.5853 0.95127 17.3188 0.561855 18.4611C0.46479 18.7466 0.411636 19.1197 0.373503 19.4594C0.333059 19.8302 0.30186 20.2758 0.277593 20.7606C0.227706 21.8707 0.201893 22.9818 0.200173 24.093C0.190928 26.4167 0.249861 28.8348 0.334215 29.5844C0.482123 30.8971 1.24015 32.12 1.89881 33.184L1.97276 33.3026C2.17267 33.625 2.37027 33.9463 2.5644 34.2767C3.43567 35.7633 4.38321 36.7651 5.24177 37.6736L5.26141 37.6932C5.74443 38.2033 6.19162 38.6777 6.61339 39.2062C6.20494 39.6347 5.9774 40.2032 5.97785 40.7942V43.0971C5.97785 43.7079 6.22133 44.2937 6.65474 44.7256C7.08815 45.1575 7.67598 45.4001 8.28892 45.4001H17.5332C18.1461 45.4001 18.734 45.1575 19.1674 44.7256C19.6008 44.2937 19.8443 43.7079 19.8443 43.0971V40.7942C19.8442 40.2113 19.6224 39.6501 19.2236 39.2238C18.8247 38.7975 18.2784 38.5377 17.695 38.4969C17.539 37.1888 17.3368 35.4225 17.3183 34.9193C17.3021 34.4863 17.1565 34.0637 17.0201 33.7424C16.8778 33.411 16.7134 33.0894 16.5279 32.7798C16.3373 32.4581 16.1338 32.1443 15.9178 31.839L15.8727 31.7769L15.8611 31.7596L15.8565 31.7538L15.8542 31.7504L15.8426 31.7343L12.0941 27.0247L12.0594 26.9901V26.9878L12.0548 26.9832L12.0271 26.9533L11.9173 26.8301C11.7846 26.6788 11.6559 26.524 11.5313 26.366C11.1775 25.9259 10.8689 25.4514 10.6104 24.9497C10.3469 24.4108 9.84773 23.8938 9.08161 23.8558C8.42873 23.8212 7.91683 24.1667 7.6187 24.4327C7.45443 24.5801 7.30469 24.7428 7.17151 24.9186L7.11951 24.2254L7.11374 24.1494C7.00049 22.6318 6.86299 20.7951 6.41579 19.3247C5.89118 17.6044 4.72525 16.6463 3.35363 16.6141M15.3654 38.4923C15.2152 37.2257 15.028 35.571 15.0072 35.0045L14.9852 34.9043C14.9589 34.813 14.9268 34.7234 14.8893 34.636C14.7861 34.398 14.6668 34.1671 14.5323 33.9451C14.377 33.6807 14.2101 33.4233 14.0319 33.1736L14.0019 33.131L10.3411 28.532L10.3203 28.5089L10.1771 28.3477C10.0169 28.1649 9.86164 27.9779 9.71138 27.787C9.39933 27.3945 9.11331 26.9821 8.85513 26.5526L8.84704 26.5652C8.74304 26.7575 8.68526 26.9337 8.66793 27.0489C8.60438 27.4565 8.63673 27.7374 8.66909 27.8894C8.67947 27.9379 8.69298 27.9855 8.70953 28.0322V28.0357L10.8265 32.2248L8.8609 33.4212L8.83202 33.382L8.75228 33.2726C8.33976 32.7057 7.93146 32.1357 7.52742 31.5627C6.82601 30.5678 5.98709 29.3472 5.57341 28.6149C5.26372 28.0679 5.12044 27.3436 5.02915 26.6884C4.9352 25.9354 4.86391 25.1797 4.81538 24.4223L4.81307 24.397C4.69289 22.7872 4.56809 21.1959 4.20294 19.9949C4.04348 19.4709 3.8378 19.2072 3.68989 19.0794C3.58359 18.9803 3.4448 18.923 3.29932 18.9182C2.98386 18.9102 2.7747 19.1278 2.74813 19.2061C2.74582 19.213 2.73542 19.2521 2.72039 19.3374C2.69939 19.4607 2.68244 19.5848 2.66955 19.7093C2.63604 20.0179 2.60715 20.414 2.58404 20.8769C2.53651 21.9517 2.51223 23.0275 2.51124 24.1034C2.50084 26.4512 2.5644 28.7346 2.63142 29.3288C2.71462 30.0715 3.17914 30.8649 3.93948 32.0958L3.94295 32.1004C4.13939 32.4182 4.35085 32.7602 4.56 33.1172C5.29146 34.3654 6.07953 35.2025 6.94272 36.1145L6.96236 36.1352C7.60484 36.8146 8.30278 37.5516 8.96144 38.4923H15.3654ZM17.5332 43.0971V40.7942H8.28892V43.0971H17.5332ZM41.4377 18.4611C41.0472 17.3188 39.8443 16.5853 38.6448 16.6141C37.2743 16.6463 36.1084 17.6044 35.5838 19.3247C35.1366 20.7951 34.9991 22.6318 34.8859 24.1494L34.8281 24.9186C34.6894 24.7367 34.5404 24.5747 34.3809 24.4327C34.0828 24.1678 33.572 23.8224 32.918 23.8546C32.1519 23.8938 31.6527 24.4108 31.3892 24.9485C31.1307 25.4502 30.8221 25.9247 30.4682 26.3649C30.3092 26.5665 30.1435 26.7627 29.9714 26.9533L29.9448 26.9832L29.9402 26.989L29.9055 27.0247L26.1581 31.7343L26.1454 31.7504L26.1431 31.7538L26.1396 31.7596L26.1269 31.7769C26.1153 31.7914 26.1003 31.8122 26.0818 31.839C25.8646 32.1435 25.6611 32.4574 25.4717 32.7798C25.2858 33.0893 25.121 33.4109 24.9783 33.7424C24.8431 34.0637 24.6975 34.4863 24.6813 34.9193C24.6628 35.4225 24.4618 37.1888 24.3046 38.4969C23.7211 38.5377 23.1749 38.7975 22.776 39.2238C22.3772 39.6501 22.1554 40.2113 22.1553 40.7942V43.0971C22.1553 43.7079 22.3988 44.2937 22.8322 44.7256C23.2656 45.1575 23.8535 45.4001 24.4664 45.4001H33.7107C34.3236 45.4001 34.9114 45.1575 35.3449 44.7256C35.7783 44.2937 36.0217 43.7079 36.0217 43.0971V40.7942C36.0222 40.2026 35.7942 39.6336 35.385 39.2051C35.8068 38.6777 36.254 38.2033 36.737 37.6932L36.7567 37.6725C37.6152 36.7651 38.5628 35.7633 39.434 34.2767C39.6282 33.9463 39.8269 33.6261 40.0257 33.3026L40.0996 33.184C40.7583 32.12 41.5163 30.8971 41.6642 29.5844C41.7486 28.8348 41.8075 26.4167 41.7983 24.093C41.7969 22.9818 41.7715 21.8707 41.722 20.7606C41.7024 20.326 41.6704 19.8921 41.6261 19.4594C41.5891 19.1197 41.536 18.7455 41.4377 18.4611ZM33.0382 38.4912C33.6968 37.5504 34.3936 36.8135 35.0372 36.1341L35.0557 36.1134C35.9189 35.2014 36.7081 34.3631 37.4384 33.116C37.6464 32.7591 37.8579 32.4182 38.0555 32.0993L38.059 32.0935C38.8204 30.8637 39.2838 30.0704 39.367 29.3277C39.434 28.7335 39.4964 26.4501 39.4872 24.1022C39.4826 22.9438 39.4606 21.7992 39.4144 20.8757C39.3913 20.4128 39.3624 20.0167 39.3289 19.7081C39.316 19.5836 39.299 19.4596 39.278 19.3362C39.2714 19.2919 39.2621 19.2481 39.2503 19.2049C39.2237 19.1266 39.0146 18.909 38.7003 18.9171C38.5544 18.9216 38.4151 18.9789 38.3085 19.0783C38.1606 19.2049 37.955 19.4698 37.7955 19.9937C37.4303 21.1936 37.3055 22.7861 37.1854 24.3958L37.1831 24.4212C37.1253 25.2088 37.0652 26.0033 36.9693 26.6873C36.8792 27.3425 36.7347 28.0668 36.4262 28.6149C36.0113 29.3461 35.1724 30.5666 34.471 31.5627C34.0669 32.1353 33.6586 32.7049 33.2462 33.2715L33.1653 33.3809L33.1375 33.42L31.172 32.2225L33.2878 28.0345L33.2889 28.0311C33.3055 27.9844 33.319 27.9367 33.3293 27.8883C33.3617 27.7363 33.3941 27.4553 33.3305 27.0477C33.2972 26.878 33.2367 26.7147 33.1514 26.5641L33.1433 26.5514C32.859 27.0293 32.5459 27.4576 32.2882 27.7858C32.0932 28.0333 31.8897 28.2741 31.6781 28.5078L31.6561 28.5308L27.9966 33.1299L27.9665 33.1725L27.8429 33.3486C27.7389 33.5018 27.6025 33.7114 27.4662 33.944C27.3317 34.166 27.2124 34.3968 27.1091 34.6348C27.0644 34.7423 27.0325 34.8314 27.0132 34.902C27.0044 34.9354 26.997 34.9692 26.9912 35.0033C26.9704 35.5699 26.7832 37.2257 26.633 38.4912H33.0382ZM24.4664 43.0971V40.7942H33.7107V43.0971H24.4664Z" fill="#FCFCFC"/>
<path fill-rule="evenodd" clip-rule="evenodd" d="M15.3477 2.00347C15.3477 1.22841 15.9782 0.600098 16.756 0.600098H25.2436C26.0214 0.600098 26.6519 1.22841 26.6519 2.00347V6.51861H31.1829C31.9607 6.51861 32.5913 7.14692 32.5913 7.92199V16.3799C32.5913 17.155 31.9607 17.7833 31.1829 17.7833H26.6519V22.2984C26.6519 23.0735 26.0214 23.7018 25.2436 23.7018H16.756C15.9782 23.7018 15.3477 23.0735 15.3477 22.2984V17.7833H10.8166C10.0389 17.7833 9.40834 17.155 9.40834 16.3799V7.92199C9.40834 7.14692 10.0389 6.51861 10.8166 6.51861H15.3477V2.00347ZM18.1643 3.40685V7.92199C18.1643 8.69705 17.5338 9.32536 16.756 9.32536H12.225V14.9765H16.756C17.5338 14.9765 18.1643 15.6048 18.1643 16.3799V20.895H23.8353V16.3799C23.8353 15.6048 24.4658 14.9765 25.2436 14.9765H29.7746V9.32536H25.2436C24.4658 9.32536 23.8353 8.69705 23.8353 7.92199V3.40685H18.1643Z" fill="#FCFCFC"/>
</svg>
