<svg width="33" height="43" viewBox="0 0 33 43" fill="none" xmlns="http://www.w3.org/2000/svg">
<path fill-rule="evenodd" clip-rule="evenodd" d="M11.106 2.21087C12.519 0.795531 14.4359 0 16.4351 0C18.4343 0 20.3512 0.795532 21.7642 2.21087C23.1771 3.62612 23.9705 5.54515 23.9705 7.54567C23.9705 9.54619 23.1771 11.4652 21.7642 12.8805C20.3512 14.2958 18.4343 15.0913 16.4351 15.0913C14.4359 15.0913 12.519 14.2958 11.106 12.8805C9.69307 11.4652 8.89971 9.54619 8.89971 7.54567C8.89971 5.54516 9.69307 3.62613 11.106 2.21087ZM16.4351 2.6875C15.1501 2.6875 13.9172 3.1988 13.0079 4.10964C12.0985 5.02055 11.5872 6.25649 11.5872 7.54567C11.5872 8.83486 12.0985 10.0708 13.0079 10.9817C13.9172 11.8925 15.1501 12.4038 16.4351 12.4038C17.7201 12.4038 18.953 11.8925 19.8623 10.9817C20.7717 10.0708 21.283 8.83486 21.283 7.54567C21.283 6.25649 20.7717 5.02055 19.8623 4.10964C18.953 3.1988 17.7201 2.6875 16.4351 2.6875ZM2.25914 19.1927C3.69946 17.8234 5.60991 17.0597 7.59654 17.0597C9.58316 17.0597 11.4936 17.8234 12.9339 19.1927C12.9424 19.2008 12.9508 19.2089 12.959 19.2172L16.4351 22.699L19.9112 19.2172C19.9194 19.2089 19.9278 19.2008 19.9363 19.1927C21.3766 17.8234 23.287 17.0597 25.2737 17.0597C27.2603 17.0597 29.1707 17.8234 30.6111 19.1927L30.6113 19.193C31.3251 19.872 31.8934 20.6892 32.2817 21.5949C32.67 22.5006 32.8702 23.4759 32.8702 24.4614C32.8702 25.447 32.67 26.4222 32.2817 27.3279C31.8945 28.2311 31.3284 29.0463 30.6174 29.7241L17.3725 42.6191C16.8508 43.127 16.0194 43.127 15.4977 42.6191L2.25288 29.7242C1.54188 29.0463 0.975688 28.2311 0.588487 27.3279C0.200203 26.4222 0 25.447 0 24.4614C0 23.4759 0.200203 22.5006 0.588487 21.5949C0.976774 20.6892 1.54506 19.8719 2.25887 19.193L2.25914 19.1927ZM4.11085 21.1405C4.11094 21.1404 4.11103 21.1403 4.11112 21.1402C5.05231 20.2456 6.2999 19.7472 7.59654 19.7472C8.88781 19.7472 10.1304 20.2415 11.0703 21.1291L15.4841 25.5503C15.7362 25.8028 16.0783 25.9447 16.4351 25.9447C16.7919 25.9447 17.134 25.8028 17.3861 25.5503L21.7999 21.1291C22.7397 20.2415 23.9824 19.7472 25.2737 19.7472C26.5704 19.7472 27.8181 20.2457 28.7593 21.1405C29.2088 21.5681 29.5669 22.083 29.8116 22.6539C30.0564 23.2249 30.1827 23.8399 30.1827 24.4614C30.1827 25.083 30.0564 25.698 29.8116 26.269C29.5668 26.84 29.2087 27.3549 28.7591 27.7826C28.7553 27.7862 28.7516 27.7898 28.7478 27.7934L16.4351 39.7808L4.12237 27.7934C4.11864 27.7898 4.11489 27.7862 4.11112 27.7826C3.66152 27.3549 3.30336 26.84 3.05856 26.269C2.81377 25.698 2.6875 25.083 2.6875 24.4614C2.6875 23.8399 2.81377 23.2249 3.05856 22.6539C3.30331 22.083 3.66137 21.5681 4.11085 21.1405Z" fill="#FCFCFC"/>
</svg>
