<svg width="42" height="36" viewBox="0 0 42 36" fill="none" xmlns="http://www.w3.org/2000/svg">
<path d="M20.9992 35.2C20.6325 35.2 20.2643 35.13 19.8945 34.9901C19.5247 34.8516 19.2089 34.6431 18.947 34.3647L4.34997 20.5007C3.00183 19.2251 1.97261 17.7884 1.26233 16.1906C0.553589 14.5929 0.199219 12.9572 0.199219 11.2836C0.199219 8.14489 1.23768 5.47998 3.3146 3.28886C5.39151 1.09774 7.94144 0.00145783 10.9644 0C12.5452 0 14.0659 0.311246 15.5265 0.933739C16.9856 1.55623 18.2914 2.43093 19.4438 3.55783L20.9992 5.11479L22.4668 3.64311C23.6393 2.45936 24.9628 1.55623 26.4373 0.933739C27.9117 0.311246 29.4248 0 30.9763 0C33.9992 0 36.5592 1.09629 38.6561 3.28886C40.7531 5.48144 41.8008 8.12739 41.7992 11.2267C41.7992 12.9295 41.4425 14.5797 40.7292 16.1775C40.0143 17.7753 38.9874 19.212 37.6485 20.4876L22.996 34.3669C22.7017 34.6438 22.3874 34.8516 22.0531 34.9901C21.7187 35.1286 21.3675 35.1978 20.9992 35.1978M23.3103 10.0087C23.5183 10.0087 23.7063 10.051 23.8742 10.1356C24.0437 10.2201 24.1801 10.3375 24.2833 10.4876L28.5242 16.569H37.9374C38.4735 15.7249 38.8757 14.8509 39.1437 13.947C39.4118 13.0432 39.5312 12.1372 39.502 11.2289C39.4542 8.71417 38.6122 6.58282 36.9759 4.83489C35.3412 3.08549 33.3413 2.2108 30.9763 2.2108C29.7237 2.2108 28.5042 2.45134 27.3178 2.93242C26.1314 3.41059 25.1038 4.11108 24.2348 5.03388L22.1409 7.16596C21.9791 7.35547 21.8035 7.48668 21.614 7.55957C21.4245 7.63246 21.2195 7.66818 20.9992 7.66672C20.7789 7.66526 20.567 7.62226 20.3637 7.5377C20.1603 7.45315 19.9723 7.32923 19.7998 7.16596L17.7059 5.03388C16.8384 4.11108 15.8139 3.40622 14.6321 2.9193C13.4488 2.43093 12.2262 2.18674 10.9644 2.18674C8.59934 2.18674 6.59945 3.06508 4.96473 4.82177C3.33 6.57845 2.51187 8.71417 2.51033 11.2289C2.51033 12.1649 2.64206 13.0782 2.90553 13.9689C3.169 14.8596 3.55418 15.7263 4.06109 16.569H14.0659C14.2739 16.569 14.4549 16.6112 14.609 16.6958C14.7631 16.7803 14.8917 16.8977 14.995 17.0478L18.3507 21.7843L22.2264 10.7828C22.3204 10.5423 22.4591 10.3528 22.6424 10.2143C22.8258 10.0758 23.0484 10.0073 23.3103 10.0087ZM23.6478 13.5425L19.772 24.5418C19.678 24.7838 19.5301 24.9733 19.3283 25.1104C19.1264 25.2474 18.8938 25.3159 18.6303 25.3159C18.4239 25.3159 18.2436 25.2736 18.0895 25.1891C17.9355 25.1045 17.806 24.9872 17.7013 24.837L13.4165 18.7557H5.7898L20.5948 32.8055C20.6718 32.8784 20.7396 32.9243 20.7982 32.9433C20.8567 32.9622 20.9237 32.971 20.9992 32.9695C21.0747 32.9681 21.1425 32.9593 21.2026 32.9433C21.2627 32.9272 21.3297 32.8813 21.4037 32.8055L36.1948 18.7557H27.9326C27.7261 18.7557 27.5381 18.7069 27.3686 18.6092C27.1992 18.5115 27.0582 18.3869 26.9457 18.2352L23.6478 13.5425Z" fill="#FCFCFC"/>
</svg>
