<svg width="42" height="37" viewBox="0 0 42 37" fill="none" xmlns="http://www.w3.org/2000/svg">
<path fill-rule="evenodd" clip-rule="evenodd" d="M1.15924 37C0.519006 37 0 36.4823 0 35.8438C0 35.2052 0.519008 34.6875 1.15923 34.6875H3.83439V1.51202C3.83439 0.676953 4.5131 0 5.35032 0H36.5605C37.3977 0 38.0764 0.676954 38.0764 1.51202V34.6875H40.8408C41.481 34.6875 42 35.2052 42 35.8438C42 36.4823 41.481 37 40.8408 37H1.15924ZM22.0875 7.91586C22.0875 7.27729 21.5685 6.75961 20.9282 6.75961C20.288 6.75961 19.769 7.27729 19.769 7.91586V11.197H16.4076C15.7674 11.197 15.2484 11.7147 15.2484 12.3533C15.2484 12.9918 15.7674 13.5095 16.4076 13.5095H19.769V17.0769C19.769 17.7155 20.288 18.2332 20.9282 18.2332C21.5685 18.2332 22.0875 17.7155 22.0875 17.0769V13.5095H25.5924C26.2326 13.5095 26.7516 12.9918 26.7516 12.3533C26.7516 11.7147 26.2326 11.197 25.5924 11.197H22.0875V7.91586ZM6.15287 34.6875H13.465V24.1923C13.465 23.2099 14.2634 22.4135 15.2484 22.4135H26.6624C27.6474 22.4135 28.4459 23.2099 28.4459 24.1923V34.6875H35.758V2.3125H6.15287V34.6875ZM15.7834 24.726H26.1274V34.6875H15.7834V24.726Z" fill="#FCFCFC"/>
</svg>
