<svg width="40" height="40" viewBox="0 0 40 40" fill="none" xmlns="http://www.w3.org/2000/svg">
<path fill-rule="evenodd" clip-rule="evenodd" d="M11.6742 2.5V6.15385H27.9638V2.5H11.6742ZM11.1312 0C10.1316 0 9.32127 0.860991 9.32127 1.92308V6.73077C9.32127 7.79286 10.1316 8.65385 11.1312 8.65385H28.5068C29.5064 8.65385 30.3167 7.79286 30.3167 6.73077V1.92308C30.3167 0.860991 29.5064 0 28.5068 0H11.1312Z" fill="#FCFCFC"/>
<path fill-rule="evenodd" clip-rule="evenodd" d="M3.75039 8.29031C4.19235 7.06159 5.30201 6.25 6.54003 6.25H33.46C34.698 6.25 35.8077 7.06159 36.2496 8.29031L39.8032 18.1698C39.9333 18.5314 40 18.9153 40 19.3025V36.8269C40 38.5794 38.6629 40 37.0136 40H2.98643C1.33707 40 0 38.5794 0 36.8269V19.3025C0 18.9153 0.066694 18.5314 0.196786 18.1698L3.75039 8.29031ZM6.54003 8.75C6.27742 8.75 6.04204 8.92215 5.94828 9.18279L2.39468 19.0622C2.36709 19.139 2.35294 19.2204 2.35294 19.3025V36.8269C2.35294 37.1987 2.63656 37.5 2.98643 37.5H37.0136C37.3634 37.5 37.6471 37.1987 37.6471 36.8269V19.3025C37.6471 19.2204 37.6329 19.139 37.6053 19.0622L34.0517 9.18279C33.958 8.92216 33.7226 8.75 33.46 8.75H6.54003Z" fill="#FCFCFC"/>
<path fill-rule="evenodd" clip-rule="evenodd" d="M19.8819 16.9231C20.5317 16.9231 21.0584 17.4827 21.0584 18.1731V21.7203H24.6154C25.2651 21.7203 25.7919 22.2799 25.7919 22.9703C25.7919 23.6606 25.2651 24.2203 24.6154 24.2203H21.0584V28.0769C21.0584 28.7673 20.5317 29.3269 19.8819 29.3269C19.2322 29.3269 18.7055 28.7673 18.7055 28.0769V24.2203H15.2941C14.6444 24.2203 14.1176 23.6606 14.1176 22.9703C14.1176 22.2799 14.6444 21.7203 15.2941 21.7203H18.7055V18.1731C18.7055 17.4827 19.2322 16.9231 19.8819 16.9231Z" fill="#FCFCFC"/>
</svg>
