<svg width="41" height="41" viewBox="0 0 41 41" fill="none" xmlns="http://www.w3.org/2000/svg">
<path fill-rule="evenodd" clip-rule="evenodd" d="M1.17226 1.17152C1.66755 0.676224 2.47059 0.676224 2.96589 1.17152L21.6969 19.9025C21.6974 19.903 21.6978 19.9035 21.6983 19.9039L40.4293 38.6349C40.9246 39.1302 40.9246 39.9333 40.4293 40.4286C39.934 40.9239 39.131 40.9239 38.6357 40.4286L32.4756 34.2685V35.3692C32.4756 36.8095 31.9034 38.1909 30.8849 39.2094C29.8664 40.2279 28.485 40.8 27.0447 40.8H14.5569C13.1165 40.8 11.7351 40.2279 10.7167 39.2094C9.69816 38.1909 9.12598 36.8095 9.12598 35.3692V17.7197C9.12598 15.8981 10.1071 14.2744 11.6059 13.3988L1.17226 2.96516C0.676956 2.46986 0.676956 1.66682 1.17226 1.17152ZM13.5335 15.3264C12.442 15.597 11.6626 16.5796 11.6626 17.7197V19.5318H17.7389L13.5335 15.3264ZM20.2754 22.0683H11.6626V32.0196H29.939V31.7319L20.2754 22.0683ZM29.939 34.5561H11.6626V35.3692C11.6626 36.1368 11.9675 36.873 12.5103 37.4157C13.0531 37.9585 13.7893 38.2635 14.5569 38.2635H27.0447C27.8123 38.2635 28.5485 37.9585 29.0913 37.4157C29.6341 36.873 29.939 36.1368 29.939 35.3692V34.5561ZM16.6382 3.33663C16.4226 3.33663 16.2158 3.42229 16.0633 3.57476C15.9108 3.72723 15.8252 3.93402 15.8252 4.14964V6.23094C15.8252 6.37487 15.8788 6.61899 16.0024 6.79069C16.055 6.86376 16.1156 6.91803 16.192 6.95745C16.2674 6.99635 16.403 7.04395 16.6382 7.04395H24.9634C25.179 7.04395 25.3858 6.95829 25.5383 6.80583C25.6907 6.65336 25.7764 6.44657 25.7764 6.23094V4.14964C25.7764 3.93402 25.6907 3.72723 25.5383 3.57476C25.3858 3.42229 25.179 3.33663 24.9634 3.33663H16.6382ZM14.2697 1.78112C14.8978 1.15295 15.7498 0.800049 16.6382 0.800049H24.9634C25.8517 0.800049 26.7037 1.15295 27.3319 1.78112C27.9601 2.40929 28.313 3.26128 28.313 4.14964V6.23094C28.313 7.11931 27.9601 7.97129 27.3319 8.59946C27.0143 8.91707 26.6395 9.1643 26.2317 9.33114V10.3515C26.2317 10.3516 26.2317 10.3518 26.2317 10.3519C26.232 10.9358 26.4393 11.5006 26.8168 11.9461C27.1943 12.3915 27.7175 12.6887 28.2934 12.7847C30.7079 13.1862 32.4756 15.2746 32.4756 17.7197V26.7513C32.4756 27.4517 31.9077 28.0196 31.2073 28.0196C30.5068 28.0196 29.939 27.4517 29.939 26.7513V22.0683H25.0447C24.3442 22.0683 23.7764 21.5005 23.7764 20.8C23.7764 20.0996 24.3442 19.5318 25.0447 19.5318H29.939V17.7197C29.939 16.5142 29.0676 15.4849 27.8773 15.2869L27.8769 15.2869C26.7087 15.0922 25.6473 14.4896 24.8816 13.586C24.1159 12.6825 23.6955 11.5367 23.6951 10.3523V9.58054H17.9065V10.3519C17.9065 11.0524 17.3386 11.6202 16.6382 11.6202C15.9377 11.6202 15.3699 11.0524 15.3699 10.3519V9.36253C14.7597 9.13463 14.2836 8.7447 13.9439 8.27283C13.4431 7.57731 13.2886 6.78078 13.2886 6.23094V4.14964C13.2886 3.26127 13.6415 2.40929 14.2697 1.78112ZM17.4512 27.044C17.4512 26.3435 18.019 25.7757 18.7195 25.7757H22.8821C23.5825 25.7757 24.1504 26.3435 24.1504 27.044C24.1504 27.7444 23.5825 28.3122 22.8821 28.3122H18.7195C18.019 28.3122 17.4512 27.7444 17.4512 27.044Z" fill="#FCFCFC"/>
</svg>
