<svg width="20" height="28" viewBox="0 0 20 28" fill="none" xmlns="http://www.w3.org/2000/svg">
<path fill-rule="evenodd" clip-rule="evenodd" d="M6.00033 2.00008H4.66699V9.47675C4.66711 9.9257 4.50248 10.3591 4.20433 10.6947C2.78541 12.2921 2.00128 14.3542 2.00033 16.4907V25.6381C2.00033 25.8381 2.16233 26.0001 2.36233 26.0001H8.30499C8.50499 26.0001 8.66699 25.8381 8.66699 25.6381V16.4907C8.66699 14.3541 7.88299 12.2914 6.46366 10.6947C6.16526 10.3592 6.00039 9.92579 6.00033 9.47675V2.00008ZM6.00033 0.666748C6.35395 0.666748 6.69309 0.807224 6.94313 1.05727C7.19318 1.30732 7.33366 1.64646 7.33366 2.00008V9.47675C7.33366 9.59942 7.37833 9.71675 7.46033 9.80875C9.09594 11.6503 9.99963 14.0277 10.0003 16.4907V25.6381C10.0003 26.0877 9.82171 26.5189 9.50377 26.8369C9.18584 27.1548 8.75462 27.3334 8.30499 27.3334H2.36233C2.13969 27.3334 1.91924 27.2896 1.71355 27.2044C1.50786 27.1192 1.32097 26.9943 1.16354 26.8369C1.00612 26.6794 0.88124 26.4925 0.796041 26.2869C0.710843 26.0812 0.666992 25.8607 0.666992 25.6381V16.4907C0.667687 14.0277 1.57138 11.6503 3.20699 9.80875C3.28844 9.71732 3.33351 9.59919 3.33366 9.47675V2.00008C3.33366 1.64646 3.47414 1.30732 3.72418 1.05727C3.97423 0.807224 4.31337 0.666748 4.66699 0.666748H6.00033Z" fill="#29A8D3"/>
<path fill-rule="evenodd" clip-rule="evenodd" d="M8.66699 18.0001H2.00033V22.0001H8.66699V18.0001ZM0.666992 16.6667V23.3334H10.0003V16.6667H0.666992ZM13.333 10.0001L12.7843 15.1654C12.7459 15.5232 12.7832 15.885 12.8938 16.2274C13.0044 16.5698 13.1858 16.8851 13.4263 17.1527C13.6667 17.4204 13.9608 17.6345 14.2894 17.781C14.6181 17.9275 14.9738 18.0033 15.3337 18.0033C15.6935 18.0033 16.0493 17.9275 16.3779 17.781C16.7065 17.6345 17.0006 17.4204 17.241 17.1527C17.4815 16.8851 17.6629 16.5698 17.7735 16.2274C17.8841 15.885 17.9214 15.5232 17.883 15.1654L17.3343 10.0001H13.333ZM18.5337 8.66675H12.1337L11.4583 15.0241C11.4003 15.5677 11.4573 16.1174 11.6256 16.6375C11.794 17.1577 12.0698 17.6366 12.4353 18.0431C12.8008 18.4497 13.2477 18.7748 13.7471 18.9974C14.2464 19.2199 14.787 19.3349 15.3337 19.3349C15.8803 19.3349 16.4209 19.2199 16.9203 18.9974C17.4196 18.7748 17.8665 18.4497 18.232 18.0431C18.5975 17.6366 18.8734 17.1577 19.0417 16.6375C19.21 16.1174 19.267 15.5677 19.209 15.0241L18.5337 8.66675Z" fill="#29A8D3"/>
<path fill-rule="evenodd" clip-rule="evenodd" d="M14.667 26.6667V18.6667H16.0003V26.6667H14.667Z" fill="#29A8D3"/>
<path fill-rule="evenodd" clip-rule="evenodd" d="M12.0003 26.6667C12.0003 26.4899 12.0706 26.3204 12.1956 26.1953C12.3206 26.0703 12.4902 26.0001 12.667 26.0001H18.0003C18.1771 26.0001 18.3467 26.0703 18.4717 26.1953C18.5968 26.3204 18.667 26.4899 18.667 26.6667C18.667 26.8436 18.5968 27.0131 18.4717 27.1382C18.3467 27.2632 18.1771 27.3334 18.0003 27.3334H12.667C12.4902 27.3334 12.3206 27.2632 12.1956 27.1382C12.0706 27.0131 12.0003 26.8436 12.0003 26.6667ZM18.3337 15.3334H12.3337V14.0001H18.3337V15.3334Z" fill="#29A8D3"/>
</svg>
