<svg width="32" height="23" viewBox="0 0 32 23" fill="none" xmlns="http://www.w3.org/2000/svg">
<path fill-rule="evenodd" clip-rule="evenodd" d="M8.32839 20.6875H23.7423C22.9698 17.3611 19.8519 14.8011 16.0353 14.8011C12.2188 14.8011 9.10086 17.3611 8.32839 20.6875ZM6.60612 21.0661C6.68262 20.5277 6.80797 20.0043 6.97775 19.5C7.16899 18.932 7.4166 18.3883 7.71425 17.875C8.2361 16.9751 8.91177 16.1686 9.70714 15.4884C10.1508 15.109 10.6317 14.7688 11.1439 14.4736C12.5734 13.6498 14.2467 13.1761 16.0353 13.1761C17.8201 13.1761 19.4901 13.6478 20.9175 14.4683C21.4306 14.7632 21.9125 15.1033 22.357 15.4828C23.1552 16.1642 23.8331 16.9726 24.3564 17.875C24.6541 18.3883 24.9017 18.932 25.0929 19.5C25.2627 20.0043 25.3881 20.5277 25.4646 21.0661C25.5617 21.7496 24.9927 22.3125 24.3024 22.3125H7.76829C7.07793 22.3125 6.50899 21.7496 6.60612 21.0661Z" fill="#29A8D3"/>
<path fill-rule="evenodd" clip-rule="evenodd" d="M12.0875 2.56921C13.1323 1.52445 14.5493 0.9375 16.0268 0.9375C17.5043 0.9375 18.9214 1.52445 19.9661 2.56921C20.9289 3.53198 21.5029 4.81083 21.587 6.16186C21.5942 6.27694 21.5978 6.39254 21.5978 6.50852C21.5978 7.54784 21.3074 8.55721 20.7715 9.42815C20.5456 9.79536 20.276 10.138 19.9661 10.4478C18.9214 11.4926 17.5043 12.0795 16.0268 12.0795C14.5493 12.0795 13.1323 11.4926 12.0875 10.4478C11.7736 10.134 11.5011 9.78648 11.2733 9.41387C10.743 8.54619 10.4558 7.54216 10.4558 6.50852C10.4558 6.39702 10.4591 6.28586 10.4658 6.17519C10.547 4.81925 11.1216 3.53514 12.0875 2.56921ZM16.0268 2.5625C14.9803 2.5625 13.9766 2.97824 13.2366 3.71826C12.4965 4.45829 12.0808 5.46197 12.0808 6.50852C12.0808 7.55507 12.4965 8.55876 13.2366 9.29878C13.9766 10.0388 14.9803 10.4545 16.0268 10.4545C17.0734 10.4545 18.077 10.0388 18.8171 9.29878C19.5571 8.55876 19.9728 7.55507 19.9728 6.50852C19.9728 5.46197 19.5571 4.45829 18.8171 3.71826C18.077 2.97824 17.0734 2.5625 16.0268 2.5625Z" fill="#29A8D3"/>
<path d="M24.7769 14.8767C26.9036 14.8767 28.6642 16.1515 29.3501 17.875H24.3564C24.6541 18.3883 24.9017 18.932 25.0929 19.5H30.0355C30.7259 19.5 31.2989 18.9343 31.1571 18.2587C30.5574 15.4025 27.9288 13.2517 24.7769 13.2517C23.3321 13.2517 21.9973 13.7036 20.9175 14.4683C21.4306 14.7632 21.9125 15.1033 22.357 15.4828C23.0655 15.0988 23.8893 14.8767 24.7769 14.8767Z" fill="#29A8D3"/>
<path d="M2.70373 17.875C3.38963 16.1515 5.15021 14.8767 7.27691 14.8767C8.1688 14.8767 8.99629 15.1009 9.70714 15.4884C10.1508 15.109 10.6317 14.7688 11.1439 14.4736C10.0627 13.7057 8.72505 13.2517 7.27691 13.2517C4.12504 13.2517 1.49643 15.4025 0.896735 18.2587C0.754876 18.9343 1.32793 19.5 2.01829 19.5H6.97775C7.16899 18.932 7.4166 18.3883 7.71425 17.875H2.70373Z" fill="#29A8D3"/>
<path fill-rule="evenodd" clip-rule="evenodd" d="M7.27113 4.625C6.19255 4.625 5.15814 5.05347 4.39547 5.81614C3.63279 6.57882 3.20433 7.61322 3.20433 8.69181C3.20433 9.77039 3.63279 10.8048 4.39547 11.5675C5.15814 12.3302 6.19255 12.7586 7.27113 12.7586C8.34972 12.7586 9.38413 12.3302 10.1468 11.5675C10.7371 10.9772 11.1271 10.2242 11.2733 9.41387C10.743 8.54619 10.4558 7.54216 10.4558 6.50852C10.4558 6.39702 10.4591 6.28586 10.4658 6.17519C10.3671 6.04995 10.2607 5.93002 10.1468 5.81614C9.38413 5.05347 8.34972 4.625 7.27113 4.625ZM7.27113 6.25C6.62353 6.25 6.00244 6.50726 5.54451 6.96519C5.08659 7.42312 4.82933 8.0442 4.82933 8.69181C4.82933 9.33942 5.08659 9.9605 5.54451 10.4184C6.00244 10.8764 6.62353 11.1336 7.27113 11.1336C7.91874 11.1336 8.53982 10.8764 8.99775 10.4184C9.45568 9.9605 9.71294 9.33942 9.71294 8.69181C9.71294 8.0442 9.45568 7.42312 8.99775 6.96519C8.53982 6.50726 7.91874 6.25 7.27113 6.25Z" fill="#29A8D3"/>
<path fill-rule="evenodd" clip-rule="evenodd" d="M24.7711 4.625C23.6926 4.625 22.6581 5.05347 21.8955 5.81614C21.7856 5.92597 21.6827 6.04144 21.587 6.16186C21.5942 6.27694 21.5978 6.39254 21.5978 6.50852C21.5978 7.54784 21.3074 8.55721 20.7715 9.42815C20.9197 10.233 21.3087 10.9807 21.8955 11.5675C22.6581 12.3302 23.6926 12.7586 24.7711 12.7586C25.8497 12.7586 26.8841 12.3302 27.6468 11.5675C28.4095 10.8048 28.8379 9.77039 28.8379 8.69181C28.8379 7.61322 28.4095 6.57881 27.6468 5.81614C26.8841 5.05347 25.8497 4.625 24.7711 4.625ZM24.7711 6.25C24.1235 6.25 23.5024 6.50726 23.0445 6.96519C22.5866 7.42312 22.3293 8.0442 22.3293 8.69181C22.3293 9.33942 22.5866 9.9605 23.0445 10.4184C23.5024 10.8764 24.1235 11.1336 24.7711 11.1336C25.4187 11.1336 26.0398 10.8764 26.4978 10.4184C26.9557 9.9605 27.2129 9.33942 27.2129 8.69181C27.2129 8.0442 26.9557 7.42312 26.4978 6.96519C26.0398 6.50726 25.4187 6.25 24.7711 6.25Z" fill="#29A8D3"/>
</svg>
