<svg width="28" height="28" viewBox="0 0 28 28" fill="none" xmlns="http://www.w3.org/2000/svg">
<path fill-rule="evenodd" clip-rule="evenodd" d="M14.9515 1.74632C15.4679 1.22868 16.1687 0.9375 16.8999 0.9375C17.631 0.9375 18.3318 1.22868 18.8483 1.74632L21.9267 4.83093L21.927 4.8312C22.4432 5.34892 22.7328 6.05056 22.7328 6.7817C22.7328 7.51285 22.4432 8.21448 21.927 8.73221L21.9269 8.73229L19.0273 11.6395L27.2003 19.834C27.5172 20.1517 27.5165 20.6662 27.1988 20.983C26.8811 21.2999 26.3666 21.2992 26.0497 20.9815L17.8798 12.7901L14.9637 15.7138L14.9637 15.7139C14.4472 16.2315 13.7464 16.5227 13.0153 16.5227C12.2841 16.5227 11.5833 16.2315 11.0668 15.7139L11.0668 15.7138L7.99015 12.6291L7.99006 12.629C7.47385 12.1113 7.18424 11.4096 7.18424 10.6785C7.18424 9.94733 7.47385 9.2457 7.99006 8.72797L7.99015 8.72789L14.9189 1.78093C14.9294 1.76913 14.9402 1.75759 14.9515 1.74632ZM16.1284 2.86831C16.1204 2.877 16.1122 2.88555 16.1039 2.89395L9.14079 9.87534L9.1407 9.87543C8.92871 10.0881 8.80924 10.3769 8.80924 10.6785C8.80924 10.9801 8.92871 11.2689 9.1407 11.4815M9.14079 11.4816L12.2172 14.5661L12.2173 14.5662C12.4293 14.7787 12.7164 14.8977 13.0153 14.8977C13.3141 14.8977 13.6012 14.7787 13.8132 14.5662L13.8133 14.5661L20.7763 7.58484C20.9883 7.37218 21.1078 7.08333 21.1078 6.7817C21.1078 6.48008 20.9883 6.19123 20.7763 5.97856L17.698 2.89413L17.6979 2.89403C17.4859 2.6815 17.1988 2.5625 16.8999 2.5625C16.6133 2.5625 16.3375 2.67193 16.1284 2.86831M2.50481 21.3815C2.50481 20.9327 2.86858 20.569 3.31731 20.569H14C14.4487 20.569 14.8125 20.9327 14.8125 21.3815V25.4375H15.9423C16.391 25.4375 16.7548 25.8013 16.7548 26.25C16.7548 26.6987 16.391 27.0625 15.9423 27.0625H1.375C0.926269 27.0625 0.5625 26.6987 0.5625 26.25C0.5625 25.8013 0.926269 25.4375 1.375 25.4375H2.50481V21.3815ZM4.12981 25.4375H13.1875V22.194H4.12981V25.4375Z" fill="#29A8D3"/>
</svg>
