<svg width="24" height="27" viewBox="0 0 24 27" fill="none" xmlns="http://www.w3.org/2000/svg">
<path fill-rule="evenodd" clip-rule="evenodd" d="M1.82855 25.375H22.1722C21.3656 20.7771 17.1648 17.1875 12.0004 17.1875C6.83593 17.1875 2.63518 20.7771 1.82855 25.375ZM0.133114 25.7522C0.781969 20.0224 5.84757 15.5625 12.0004 15.5625C18.1532 15.5625 23.2188 20.0224 23.8677 25.7522C23.9453 26.4382 23.3782 27 22.6879 27H1.31289C0.622534 27 0.0554327 26.4382 0.133114 25.7522Z" fill="#29A8D3"/>
<path fill-rule="evenodd" clip-rule="evenodd" d="M7.22591 2.92519C8.49145 1.65299 10.2088 0.9375 12.0004 0.9375C13.792 0.9375 15.5093 1.65299 16.7749 2.92519C18.0403 4.19725 18.7504 5.92162 18.7504 7.71875C18.7504 9.51588 18.0403 11.2403 16.7749 12.5123C15.5093 13.7845 13.792 14.5 12.0004 14.5C10.2088 14.5 8.49145 13.7845 7.22591 12.5123C5.96052 11.2403 5.25039 9.51588 5.25039 7.71875C5.25039 5.92162 5.96052 4.19725 7.22591 2.92519ZM12.0004 2.5625C10.6425 2.5625 9.33943 3.1047 8.37797 4.07122C7.41637 5.03788 6.87539 6.34985 6.87539 7.71875C6.87539 9.08765 7.41637 10.3996 8.37797 11.3663C9.33943 12.3328 10.6425 12.875 12.0004 12.875C13.3582 12.875 14.6613 12.3328 15.6228 11.3663C16.5844 10.3996 17.1254 9.08764 17.1254 7.71875C17.1254 6.34986 16.5844 5.03788 15.6228 4.07122C14.6613 3.1047 13.3582 2.5625 12.0004 2.5625Z" fill="#29A8D3"/>
<path fill-rule="evenodd" clip-rule="evenodd" d="M10.1466 4.72888C10.5756 4.58964 11.0382 4.5904 11.4667 4.73102C11.6643 4.79587 11.8501 4.88895 12.0186 5.00643C12.2003 4.87883 12.4025 4.78012 12.6181 4.71521C13.0673 4.57996 13.5493 4.59901 13.9864 4.76937C14.4236 4.93975 14.7911 5.25192 15.0285 5.65649C15.2599 6.05099 15.3541 6.51033 15.2963 6.96333C15.2542 7.82074 14.6155 8.43841 14.2543 8.77629L12.3244 10.5814C12.0764 10.8134 11.6887 10.8049 11.4511 10.5625L9.62777 8.7021C9.61594 8.69003 9.60461 8.67749 9.59379 8.6645C9.56586 8.63094 9.53531 8.59519 9.50287 8.55723C9.18014 8.17955 8.67039 7.58302 8.68837 6.75069C8.68332 6.30492 8.82098 5.86942 9.08099 5.50689C9.34382 5.14045 9.71754 4.86815 10.1466 4.72888ZM11.077 5.91872C10.9003 5.86073 10.7093 5.86043 10.5325 5.91782C10.3558 5.9752 10.2033 6.08689 10.0967 6.23541C9.99028 6.38385 9.93505 6.56155 9.93838 6.74246C9.93856 6.75235 9.93851 6.76225 9.93822 6.77213C9.92831 7.11302 10.1247 7.34876 10.5192 7.82238C10.5255 7.82994 10.5318 7.83756 10.5382 7.84525L11.9164 9.25145L13.4004 7.86339C13.806 7.48398 14.0398 7.1829 14.0483 6.89054C14.049 6.86661 14.051 6.84274 14.0545 6.81905C14.081 6.63627 14.0445 6.4496 13.9503 6.28907C13.8561 6.12844 13.7092 6.00291 13.5325 5.93403C13.3557 5.86513 13.1603 5.85738 12.9785 5.91213C12.7967 5.96686 12.6401 6.08048 12.5332 6.2333C12.4169 6.3997 12.2269 6.49919 12.0239 6.50011C11.8208 6.50102 11.63 6.40324 11.5121 6.2379C11.4059 6.08894 11.2537 5.97669 11.077 5.91872Z" fill="#29A8D3"/>
</svg>
