<svg width="23" height="33" viewBox="0 0 23 33" fill="none" xmlns="http://www.w3.org/2000/svg">
<g clip-path="url(#clip0_2594_5619)">
<path d="M11.3167 15.3583C10.2448 15.3583 9.21674 14.9325 8.45878 14.1746C7.70082 13.4166 7.275 12.3886 7.275 11.3167C7.275 10.2448 7.70082 9.21674 8.45878 8.45878C9.21674 7.70082 10.2448 7.275 11.3167 7.275C12.3886 7.275 13.4166 7.70082 14.1746 8.45878C14.9325 9.21674 15.3583 10.2448 15.3583 11.3167C15.3583 11.8474 15.2538 12.373 15.0507 12.8633C14.8476 13.3537 14.5499 13.7993 14.1746 14.1746C13.7993 14.5499 13.3537 14.8476 12.8633 15.0507C12.373 15.2538 11.8474 15.3583 11.3167 15.3583ZM11.3167 0C8.3153 0 5.43686 1.19229 3.31457 3.31457C1.19229 5.43686 0 8.3153 0 11.3167C0 19.8042 11.3167 32.3333 11.3167 32.3333C11.3167 32.3333 22.6333 19.8042 22.6333 11.3167C22.6333 8.3153 21.441 5.43686 19.3188 3.31457C17.1965 1.19229 14.318 0 11.3167 0Z" fill="#143A44"/>
</g>
<defs>
<clipPath id="clip0_2594_5619">
<rect width="22.6333" height="32.3333" fill="white"/>
</clipPath>
</defs>
</svg>
