<svg width="60" height="65" viewBox="0 0 60 65" fill="none" xmlns="http://www.w3.org/2000/svg">
<path d="M1.71875 63.9993V37.9788C1.71875 37.6476 1.78847 37.4509 1.92916 37.3862C2.08007 37.3213 2.24299 37.289 2.40723 37.2915H4.97567L5.16616 42.9389L4.24859 44.0457C4.32495 44.7097 4.39509 45.3268 4.459 45.897C4.52291 46.4672 4.5864 47.1221 4.64948 47.8616C4.71339 48.6003 4.7773 49.3888 4.84121 50.2271C4.90512 51.0654 4.96239 51.9112 5.01302 52.7644C5.06448 53.6168 5.09021 54.4501 5.09021 55.2644L5.16616 63.3158C5.16616 63.5449 5.10888 63.7042 4.99434 63.7926C4.8798 63.881 4.57976 63.9395 4.09545 63.9644C3.61115 63.9893 2.81435 63.9993 1.71875 63.9993ZM8.48906 57.9697L6.57674 52.0933C6.41498 51.6827 6.28064 51.2618 6.17461 50.8334C6.00861 50.2234 5.81771 49.5112 5.60191 48.697C5.38611 47.8828 5.15619 47.0494 4.91217 46.197C4.67064 45.3454 4.45401 44.5503 4.26228 43.8116C4.07055 43.0729 3.86015 42.2454 3.63107 41.3291L4.97567 37.2866L8.41809 48.1243C8.57081 48.5824 8.71731 49.0531 8.85758 49.5361C8.99785 50.0192 9.11903 50.4645 9.22112 50.872L9.56474 52.2415C9.66683 51.7584 9.77556 51.3069 9.89093 50.8869C10.0063 50.467 10.1208 50.0283 10.2345 49.571C10.3491 49.1128 10.4831 48.6675 10.6367 48.2351L13.7342 37.9701L15.3415 41.481C15.0859 42.345 14.8626 43.1397 14.6717 43.8651C14.4808 44.5906 14.2704 45.3791 14.0405 46.2306C13.8114 47.0822 13.5819 47.9027 13.352 48.692C13.1221 49.4813 12.9229 50.181 12.7544 50.7911C12.6423 51.2304 12.5081 51.6638 12.3523 52.0896L10.3603 57.661C10.341 57.7552 10.2871 57.8388 10.2092 57.8953C10.1313 57.9518 10.0351 57.977 9.93948 57.966L8.48906 57.9697ZM13.7293 63.9993L13.845 55.3752C13.8699 54.5867 13.9081 53.7596 13.9596 52.8939C14.0111 52.0282 14.0683 51.1633 14.1314 50.2993C14.1945 49.4353 14.2584 48.621 14.3231 47.8566C14.3879 47.0922 14.4451 46.4182 14.4949 45.8347C14.5464 45.2496 14.6103 44.6009 14.6867 43.8888L13.7293 43.1244V37.9738C13.7838 37.7896 13.8679 37.6155 13.9783 37.4584C14.0329 37.3973 14.1012 37.3499 14.1775 37.3201C14.2539 37.2902 14.3362 37.2787 14.4178 37.2866H17.2875V63.3071C17.2875 63.5361 17.2352 63.6955 17.1343 63.7839C17.0335 63.8723 16.7384 63.9308 16.2541 63.9557C15.7698 63.9806 14.9282 63.9993 13.7293 63.9993Z" fill="#143A44"/>
<path d="M26.1234 64.3804C24.8734 64.3804 23.8152 64.177 22.9486 63.7703C22.0821 63.3636 21.3741 62.6386 20.8247 61.5953C20.2769 60.552 19.8756 59.1335 19.6208 57.3399C19.366 55.5462 19.2381 53.2637 19.2373 50.4924C19.2373 47.0836 19.505 44.3931 20.0403 42.421C20.5757 40.449 21.3853 39.038 22.4693 38.188C23.5541 37.3365 24.9124 36.9103 26.5442 36.9094C27.7892 36.9094 28.8475 37.1256 29.719 37.5581C30.5905 37.9905 31.2918 38.7159 31.823 39.7343C32.3584 40.7519 32.7472 42.1256 32.9896 43.8553C33.2319 45.585 33.3527 47.76 33.3519 50.3803C33.3519 53.9178 33.0971 56.7037 32.5874 58.738C32.0778 60.7723 31.2939 62.2224 30.2356 63.088C29.1766 63.9504 27.8058 64.3812 26.1234 64.3804ZM26.2765 60.7935C26.6657 60.806 27.0515 60.7178 27.3966 60.5374C27.7416 60.357 28.0343 60.0906 28.2461 59.7639C28.7176 59.0766 29.0554 57.9698 29.2596 56.4435C29.4637 54.9171 29.5658 52.9201 29.5658 50.4525C29.5658 48.0098 29.4828 46.0593 29.3168 44.601C29.1508 43.1427 28.845 42.0932 28.3993 41.4524C27.9527 40.8166 27.3086 40.4988 26.467 40.4988C25.676 40.4988 25.0386 40.8486 24.5547 41.5483C24.0708 42.248 23.7201 43.3863 23.5027 44.9633C23.286 46.5403 23.1777 48.6647 23.1777 51.3365C23.1777 53.5775 23.267 55.3898 23.4454 56.7734C23.6239 58.157 23.9413 59.1729 24.3978 59.8212C24.6024 60.1296 24.8824 60.3808 25.2111 60.551C25.5398 60.7211 25.9065 60.8046 26.2765 60.7935Z" fill="#143A44"/>
<path d="M35.3022 63.9993V37.9788C35.3022 37.7298 35.3471 37.5456 35.4367 37.4435C35.5263 37.3414 35.7094 37.2916 35.9907 37.2916H38.0923C38.45 37.2916 38.6795 37.5207 38.7808 37.9788V63.3121C38.7808 63.5412 38.7297 63.7005 38.6276 63.7889C38.5255 63.8773 38.238 63.9359 37.7673 63.9608C37.2967 63.9857 36.4738 63.9993 35.3022 63.9993ZM36.4115 53.3135C36.0032 53.3135 35.789 53.2513 35.7617 53.123C35.7291 52.8955 35.7162 52.6655 35.723 52.4358V38.0112C35.723 37.9614 35.7231 37.827 35.7417 37.6103C35.7604 37.3937 35.9148 37.2866 36.2198 37.2866H39.7058C41.3135 37.2866 42.6523 37.5356 43.7222 38.0336C44.7861 38.5244 45.6347 39.3862 46.1088 40.4576C46.6309 41.5773 46.8924 43.0655 46.8932 44.9222C46.8932 46.5507 46.6952 47.9056 46.2993 48.9871C45.9034 50.0686 45.3743 50.9273 44.712 51.563C44.0728 52.1825 43.2983 52.645 42.4498 52.9139C41.5834 53.1841 40.6805 53.3189 39.773 53.3135H36.4115ZM38.7447 50.1089H40.1602C40.7213 50.1263 41.2703 49.9436 41.709 49.5934C42.1298 49.2498 42.4485 48.6688 42.6652 47.8504C42.8818 47.0321 42.9905 45.9257 42.9914 44.5313C43.0055 43.7668 42.9219 43.0036 42.7424 42.2604C42.5764 41.6371 42.3087 41.1598 41.9393 40.8286C41.57 40.4975 41.0533 40.3315 40.3893 40.3306H38.7447V50.1089Z" fill="#143A44"/>
<path d="M48.4258 63.9995V37.979C48.5536 37.5208 48.7706 37.2917 49.0769 37.2917H58.2575C58.2575 38.233 58.2509 38.9198 58.2376 39.3522C58.2243 39.7847 58.1733 40.071 58.0845 40.2113C57.9949 40.3507 57.8355 40.4204 57.6064 40.4204H51.9031V60.8758H58.2812C58.2812 61.8419 58.275 62.5474 58.2625 62.9923C58.2501 63.4372 58.199 63.7169 58.1094 63.8314C58.0198 63.946 57.8604 64.0032 57.6313 64.0032L48.4258 63.9995ZM48.8092 51.1013V47.8954H57.3001C57.3001 49.2184 57.2748 50.0833 57.2242 50.49C57.1736 50.8967 56.9798 51.1005 56.6428 51.1013H48.8092Z" fill="#143A44"/>
<path d="M50.0181 13.4214V4.69639H57.4383C57.7371 4.69639 57.945 4.60426 58.0608 4.42249C58.1766 4.24072 58.2438 3.86598 58.26 3.30199C58.2762 2.73801 58.2849 1.84036 58.2849 0.612793H46.3329C45.9345 0.612793 45.6523 0.911593 45.4863 1.50919V16.6384C46.2109 15.7769 47.9016 14.3215 50.0181 13.4214Z" fill="#29A8D3"/>
<path d="M50.0179 18.6405H56.1931C56.6255 18.6405 56.8745 18.3749 56.9401 17.8437C56.9637 17.6532 56.9986 17.0444 56.9986 17.0444C56.9986 17.0444 56.4321 16.6236 56.0798 16.3833C55.1597 15.7608 54.2048 15.4284 53.0233 15.5703C50.6989 15.8505 48.3533 17.6868 47.6698 18.5583C47.0305 19.3771 46.298 20.1187 45.4873 20.7682V35.4779H57.4393C57.7381 35.4779 57.9448 35.4032 58.0618 35.2538C58.1788 35.1044 58.2436 34.7384 58.261 34.1582C58.2784 33.578 58.2859 32.6555 58.2859 31.3943H50.0179V18.6405Z" fill="#256472"/>
<path d="M29.8207 13.1822C29.8863 12.2327 29.9693 11.3794 30.0697 10.6225C30.3511 8.56325 30.8076 7.07755 31.4392 6.16538C32.0709 5.25321 32.9009 4.79671 33.9292 4.79588C35.0248 4.79588 35.8631 5.21088 36.4441 6.04088C37.0251 6.87088 37.4235 8.24038 37.6393 10.1494C37.8551 12.0584 37.963 14.6065 37.963 17.7937C37.963 18.4361 37.9577 19.054 37.9469 19.6475C38.6845 19.9092 39.4682 20.0156 40.2489 19.96C41.1859 19.8713 42.0885 19.5611 42.882 19.0549C42.8895 18.6104 42.8932 18.1585 42.8932 17.6941C42.8932 14.2736 42.7355 11.4351 42.4201 9.17828C42.1047 6.92151 41.5984 5.12871 40.9012 3.79988C40.204 2.47188 39.291 1.52568 38.1622 0.961277C37.0334 0.396877 35.6573 0.116338 34.0338 0.119658C31.909 0.119658 30.1411 0.675757 28.7301 1.78796C27.3191 2.90016 26.265 4.74276 25.5678 7.31576C25.3861 7.98557 25.2279 8.72261 25.0947 9.52065C26.3484 10.117 27.6781 11.2226 29.8207 13.1822Z" fill="#29A8D3"/>
<path d="M40.4879 22.8532C40.2978 22.8682 40.1073 22.8769 39.9164 22.8794C39.2181 22.8851 38.5218 22.8039 37.8435 22.6379C37.7779 23.7467 37.687 24.7382 37.5708 25.6122C37.3044 27.6042 36.8645 29.0484 36.2511 29.9448C35.6377 30.8412 34.7828 31.2894 33.6864 31.2894C33.2053 31.3025 32.7288 31.1927 32.3018 30.9705C31.8748 30.7484 31.5116 30.421 31.2462 30.0195C30.6486 29.1729 30.2336 27.8449 30.0012 26.0355C29.7688 24.2261 29.6526 21.8606 29.6526 18.939C29.6526 18.2617 29.658 17.6122 29.6688 16.9905C27.1975 14.6985 25.7794 13.3925 24.7149 12.6592C24.5863 14.2171 24.522 15.9451 24.522 17.8434C24.522 21.4613 24.688 24.441 25.02 26.7825C25.352 29.1239 25.8749 30.9748 26.5887 32.3352C27.3016 33.6955 28.2229 34.6417 29.3526 35.1738C30.4822 35.7058 31.86 35.9731 33.486 35.9755C35.6772 35.9755 37.4617 35.4111 38.8395 34.2823C40.2173 33.1535 41.2382 31.2611 41.9022 28.6051C42.3238 26.9144 42.6118 24.8262 42.7662 22.3403C42.0347 22.6177 41.2677 22.7903 40.4879 22.8532Z" fill="#256472"/>
<path d="M20.6074 8.87701C21.1054 8.85958 21.5635 8.85211 21.9831 8.86082V0.617676H18.2481C17.9817 0.617676 17.7908 0.692376 17.6754 0.841776C17.5314 1.04661 17.422 1.27374 17.3517 1.51408L14.5542 10.8018C16.2711 9.7485 18.2531 8.95918 20.6074 8.87701Z" fill="#29A8D3"/>
<path d="M5.73847 17.0517C5.66626 16.1217 5.59529 15.239 5.52433 14.4086C5.44133 13.4449 5.35833 12.59 5.27533 11.8439C5.19233 11.0977 5.10102 10.2926 5.00142 9.42856L5.07986 9.33395C5.31517 10.2391 5.57786 11.2014 5.87292 12.2423C6.18832 13.3536 6.48713 14.4409 6.76933 15.5042C6.8598 15.8503 6.94778 16.1823 7.03327 16.5002C7.75228 16.1209 8.4306 15.6691 9.05764 15.1518C9.43985 14.8406 9.83078 14.5044 10.2367 14.1558L5.94763 0.617701H2.60978C2.39571 0.613616 2.18331 0.656096 1.98728 0.742201C1.80468 0.825201 1.71338 1.0825 1.71338 1.5141V17.3679C3.06064 17.5958 4.44332 17.4871 5.73847 17.0517Z" fill="#29A8D3"/>
<path d="M13.124 15.4879C12.9995 15.8677 12.8937 16.2536 12.7953 16.6483C12.6459 17.2459 12.4965 17.8186 12.3471 18.3664C12.1977 18.9142 12.0566 19.5035 11.9238 20.1343C11.7578 19.4703 11.6084 18.8727 11.4756 18.3415C11.3835 17.9767 11.2789 17.5858 11.1644 17.1737L10.8917 17.4003C9.95432 18.1731 8.92219 18.8233 7.82031 19.335C7.90248 19.5902 7.97593 19.7919 8.03943 19.9351L10.5294 27.6043H12.4218C12.7206 27.6043 12.9024 27.4711 12.9696 27.2059L15.5592 19.9351C15.6912 19.6031 15.8655 19.0387 16.0821 18.2419C16.2988 17.4451 16.5561 16.5321 16.854 15.5029C17.1404 14.5168 17.4267 13.4918 17.7131 12.4277C16.0062 13.12 14.5346 14.2791 13.124 15.4879Z" fill="#256472"/>
<path d="M5.99742 20.8066C5.98124 20.5389 5.96256 20.2738 5.94638 20.0073C4.56617 20.3696 3.12961 20.466 1.71338 20.2912V35.4777C3.14015 35.4777 4.16935 35.4611 4.80098 35.4279C5.43095 35.3943 5.82188 35.3196 5.97128 35.2038C6.12068 35.088 6.19538 34.8801 6.19538 34.5813L6.09578 24.0735C6.09578 23.0069 6.06299 21.918 5.99742 20.8066Z" fill="#256472"/>
<path d="M20.7081 11.7779C19.8919 11.8065 19.0841 11.9516 18.309 12.2087C18.2517 12.8644 18.1899 13.5973 18.1235 14.4074C18.0405 15.4034 17.9575 16.4658 17.8745 17.5946C17.7915 18.7234 17.7168 19.8522 17.6504 20.981C17.5831 22.1089 17.5333 23.1879 17.501 24.218L17.3516 35.4728C18.9111 35.4728 20.0067 35.4562 20.6384 35.423C21.27 35.3898 21.6518 35.3151 21.7838 35.1989C21.9157 35.0818 21.983 34.8752 21.983 34.5764V11.7543C21.6095 11.7468 21.1961 11.7605 20.7081 11.7779Z" fill="#256472"/>
</svg>
