<svg width="25" height="24" viewBox="0 0 25 24" fill="none" xmlns="http://www.w3.org/2000/svg">
<path fill-rule="evenodd" clip-rule="evenodd" d="M18.8002 10.4211C18.8002 14.7812 15.2656 18.3158 10.9054 18.3158C6.54528 18.3158 3.01069 14.7812 3.01069 10.4211C3.01069 6.06091 6.54528 2.52632 10.9054 2.52632C15.2656 2.52632 18.8002 6.06091 18.8002 10.4211ZM17.3701 18.5951C15.5935 20.0021 13.3476 20.8421 10.9054 20.8421C5.15004 20.8421 0.484375 16.1764 0.484375 10.4211C0.484375 4.66566 5.15004 0 10.9054 0C16.6608 0 21.3265 4.66566 21.3265 10.4211C21.3265 12.8631 20.4865 15.1089 19.0797 16.8854C19.1868 16.9427 19.2874 17.0164 19.3778 17.1068L24.1146 21.8436C24.6079 22.3369 24.6079 23.1367 24.1146 23.63C23.6213 24.1233 22.8215 24.1233 22.3282 23.63L17.5914 18.8931C17.5011 18.8028 17.4273 18.7022 17.3701 18.5951Z" fill="#4D5974"/>
</svg>
