<svg width="29" height="27" viewBox="0 0 29 27" fill="none" xmlns="http://www.w3.org/2000/svg">
<path fill-rule="evenodd" clip-rule="evenodd" d="M15.052 2.86761C15.453 3.06893 15.6149 3.55724 15.4136 3.95828L12.5201 9.7222L17.8851 14.0495C18.187 14.293 18.2747 14.7159 18.0945 15.0594L14.8401 21.2627V25.5C14.8401 25.9487 14.4763 26.3125 14.0276 26.3125C13.5789 26.3125 13.2151 25.9487 13.2151 25.5V21.0625C13.2151 20.931 13.247 20.8015 13.3081 20.685L16.3455 14.8954L10.9899 10.5757C10.6922 10.3356 10.6023 9.92048 10.7738 9.57873L13.9613 3.22922C14.1627 2.82819 14.651 2.66629 15.052 2.86761Z" fill="#29A8D3"/>
<path fill-rule="evenodd" clip-rule="evenodd" d="M18.2302 0.362542C20.0047 -0.183282 21.9107 -0.111041 23.6391 0.567471C25.3674 1.24596 26.8163 2.49063 27.7515 4.09894C28.6789 5.69396 29.0476 7.55431 28.7998 9.38324C28.6877 12.7394 26.1966 15.336 24.2754 17.165L14.5082 26.4635C14.1855 26.7707 13.6755 26.7607 13.3651 26.441L4.10319 16.9009C4.0879 16.8851 4.07326 16.8688 4.0593 16.8518C3.90992 16.6707 3.75625 16.4871 3.60011 16.3005C1.90535 14.2758 -0.0790439 11.9049 0.00242815 8.57724C-0.0293744 6.78761 0.508548 5.03398 1.53858 3.57211C2.5723 2.105 4.0474 1.00882 5.74781 0.445252C7.44827 -0.118335 9.28388 -0.11937 10.985 0.442303C12.3463 0.891788 13.5636 1.68255 14.5262 2.73184C15.5198 1.6251 16.7981 0.803044 18.2302 0.362542ZM23.0453 2.08009C21.6591 1.53593 20.1308 1.47804 18.7079 1.91573C17.2849 2.35343 16.0499 3.26135 15.2036 4.49323C15.0531 4.71231 14.8049 4.84391 14.5391 4.84563C14.2733 4.84735 14.0235 4.71896 13.8702 4.50186C13.0351 3.31932 11.8451 2.4376 10.4755 1.98536C9.10586 1.53314 7.62816 1.53397 6.25904 1.98774C4.88988 2.44152 3.70084 3.32459 2.86696 4.50808C2.03303 5.69163 1.59842 7.11307 1.62746 8.56372C1.62772 8.5764 1.62767 8.58909 1.62733 8.60177C1.55505 11.2964 3.13863 13.2012 4.89372 15.3123C5.02572 15.471 5.15869 15.631 5.292 15.7925L13.9705 24.7318L23.155 15.988C25.1318 14.106 27.1063 11.9213 27.1768 9.29336C27.1776 9.26267 27.1802 9.23204 27.1845 9.20163C27.3937 7.71869 27.0983 6.20844 26.3467 4.91578C25.5951 3.62319 24.4315 2.62428 23.0453 2.08009Z" fill="#29A8D3"/>
</svg>
