<svg width="22" height="28" viewBox="0 0 22 28" fill="none" xmlns="http://www.w3.org/2000/svg">
<path fill-rule="evenodd" clip-rule="evenodd" d="M11.9364 2.5625C11.8018 2.5625 11.6685 2.58901 11.5442 2.64052C11.4198 2.69203 11.3068 2.76754 11.2116 2.86272C11.1164 2.9579 11.0409 3.07089 10.9894 3.19525C10.9379 3.31961 10.9114 3.45289 10.9114 3.5875V14C10.9114 14.4487 10.5476 14.8125 10.0989 14.8125C9.65018 14.8125 9.28641 14.4487 9.28641 14V6.0375C9.28641 5.76565 9.17842 5.50494 8.98619 5.31272C8.79397 5.12049 8.53326 5.0125 8.26141 5.0125C7.98956 5.0125 7.72885 5.12049 7.53662 5.31272C7.3444 5.50494 7.23641 5.76565 7.23641 6.0375V15.225C7.23641 15.6737 6.87264 16.0375 6.42391 16.0375C5.97518 16.0375 5.61141 15.6737 5.61141 15.225V6.0375C5.61141 5.33468 5.8906 4.66064 6.38758 4.16367C6.88455 3.66669 7.55859 3.3875 8.26141 3.3875C8.61683 3.3875 8.96489 3.4589 9.28641 3.59376V3.5875C9.28641 3.2395 9.35495 2.8949 9.48813 2.57339C9.6213 2.25188 9.8165 1.95974 10.0626 1.71367C10.3087 1.46759 10.6008 1.27239 10.9223 1.13922C11.2438 1.00604 11.5884 0.9375 11.9364 0.9375C12.2844 0.9375 12.629 1.00604 12.9505 1.13922C13.272 1.27239 13.5642 1.46759 13.8102 1.71367C14.0563 1.95974 14.2515 2.25188 14.3847 2.57339C14.5179 2.8949 14.5864 3.2395 14.5864 3.5875V3.59376C14.9079 3.4589 15.256 3.3875 15.6114 3.3875C16.3142 3.3875 16.9883 3.6667 17.4852 4.16367C17.9822 4.66064 18.2614 5.33467 18.2614 6.0375V14C18.2614 14.4487 17.8976 14.8125 17.4489 14.8125C17.0002 14.8125 16.6364 14.4487 16.6364 14V6.0375C16.6364 5.76565 16.5284 5.50494 16.3362 5.31272C16.144 5.12049 15.8833 5.0125 15.6114 5.0125C15.3396 5.0125 15.0788 5.12049 14.8866 5.31272C14.6944 5.50494 14.5864 5.76565 14.5864 6.0375V14C14.5864 14.4487 14.2226 14.8125 13.7739 14.8125C13.3252 14.8125 12.9614 14.4487 12.9614 14V3.5875C12.9614 3.45289 12.9349 3.31961 12.8834 3.19525C12.8319 3.07089 12.7564 2.9579 12.6612 2.86272C12.566 2.76754 12.453 2.69203 12.3287 2.64052C12.2043 2.58901 12.071 2.5625 11.9364 2.5625Z" fill="#29A8D3"/>
<path fill-rule="evenodd" clip-rule="evenodd" d="M19.2864 7.4625C19.0146 7.4625 18.7538 7.57049 18.5616 7.76272C18.3694 7.95495 18.2614 8.21566 18.2614 8.4875C18.2614 8.93624 17.8976 9.3 17.4489 9.3C17.0002 9.3 16.6364 8.93624 16.6364 8.4875C16.6364 7.78468 16.9156 7.11064 17.4126 6.61367C17.9095 6.1167 18.5836 5.8375 19.2864 5.8375C19.9892 5.8375 20.6633 6.1167 21.1602 6.61367C21.6572 7.11064 21.9364 7.78468 21.9364 8.4875V18.9C21.9364 21.0648 21.0764 23.141 19.5457 24.6718C18.0149 26.2025 15.9387 27.0625 13.7739 27.0625H11.3239C11.284 27.0625 11.2448 27.0596 11.2064 27.0541C9.98339 26.9984 8.78687 26.6682 7.70626 26.0861C6.51616 25.445 5.50392 24.5184 4.76044 23.3894L4.75881 23.3869L4.51871 23.0194L4.51824 23.0187C4.11737 22.4037 2.75783 20.0322 0.465435 15.9566C0.12703 15.3551 0.0366352 14.6453 0.213477 13.9782C0.390318 13.3111 0.820443 12.7393 1.41237 12.3844L1.41299 12.384C2.00548 12.0295 2.69927 11.8827 3.38457 11.9669C4.06987 12.0511 4.70753 12.3614 5.19663 12.8487L6.99843 14.6505C7.31573 14.9678 7.31573 15.4822 6.99843 15.7995C6.68113 16.1168 6.16668 16.1168 5.84938 15.7995L4.04968 13.9998C4.04953 13.9997 4.04937 13.9995 4.04922 13.9994C3.81629 13.7675 3.51272 13.6198 3.1865 13.5798C2.86017 13.5397 2.5298 13.6096 2.24763 13.7783C2.01884 13.9156 1.8526 14.1367 1.78423 14.3946C1.71582 14.6526 1.75079 14.9272 1.88168 15.1598L1.88172 15.1599C4.19161 19.2665 5.51557 21.5728 5.87939 22.131L5.87958 22.1313L6.11758 22.4956C6.11786 22.496 6.11813 22.4965 6.11841 22.4969C6.71381 23.4005 7.52422 24.1423 8.47694 24.6555C9.42947 25.1686 10.4944 25.4373 11.5764 25.4375C11.5771 25.4375 11.5778 25.4375 11.5786 25.4375H13.7739C15.5078 25.4375 17.1706 24.7487 18.3966 23.5227C19.6226 22.2967 20.3114 20.6339 20.3114 18.9V8.4875C20.3114 8.21566 20.2034 7.95495 20.0112 7.76272C19.819 7.57049 19.5583 7.4625 19.2864 7.4625Z" fill="#29A8D3"/>
</svg>
