<svg width="30" height="28" viewBox="0 0 30 28" fill="none" xmlns="http://www.w3.org/2000/svg">
<path fill-rule="evenodd" clip-rule="evenodd" d="M9.72457 11.7665C10.3343 11.0029 11.2746 10.6875 12.2396 10.6875H16.3333C17.2706 10.6875 18.1708 11.0569 18.8355 11.7165C19.5003 12.3763 19.875 13.2725 19.875 14.2083C19.875 15.1441 19.5003 16.0403 18.8355 16.7001C18.1708 17.3597 17.2706 17.7292 16.3333 17.7292H13.6042C13.1554 17.7292 12.7917 17.3654 12.7917 16.9167C12.7917 16.4679 13.1554 16.1042 13.6042 16.1042H16.3333C16.8437 16.1042 17.3319 15.9029 17.6908 15.5467C18.0496 15.1907 18.25 14.7091 18.25 14.2083C18.25 13.7075 18.0496 13.226 17.6908 12.87C17.3319 12.5137 16.8437 12.3125 16.3333 12.3125H12.2396C11.5904 12.3125 11.1882 12.5234 10.9774 12.8024C10.9512 12.837 10.9223 12.8695 10.8909 12.8995L3.24924 20.212C2.92503 20.5223 2.41071 20.5109 2.10047 20.1867C1.79023 19.8625 1.80155 19.3482 2.12576 19.038L9.72457 11.7665Z" fill="#29A8D3"/>
<path fill-rule="evenodd" clip-rule="evenodd" d="M23.5159 10.1557C24.1996 9.51014 25.1115 9.16232 26.0514 9.18892C26.9925 9.21556 27.8844 9.61542 28.5308 10.3002C29.1771 10.985 29.5252 11.8986 29.4986 12.84C29.472 13.7805 29.0738 14.6721 28.391 15.3191C28.3903 15.3198 28.3896 15.3204 28.389 15.321L22.1298 21.3151C20.9994 22.5911 19.4076 23.207 17.7154 23.207H12.2478C11.5998 23.207 11.1969 23.419 10.9844 23.7027C10.9505 23.7479 10.912 23.7895 10.8695 23.8267L9.33494 25.171L10.0888 25.9258C10.4059 26.2433 10.4056 26.7577 10.0882 27.0749C9.77067 27.392 9.25622 27.3917 8.9391 27.0742L7.57766 25.7112C7.57437 25.7079 7.5711 25.7046 7.56785 25.7013L0.73764 18.8631C0.420525 18.5456 0.420825 18.0312 0.738312 17.7141C1.0558 17.397 1.57024 17.3973 1.88736 17.7148L8.1841 24.0189L9.74058 22.6554C10.3504 21.8972 11.2859 21.582 12.2478 21.582H17.7154C19.0181 21.582 20.1492 21.1121 20.931 20.2176C20.9468 20.1995 20.9634 20.1821 20.9808 20.1654L27.2686 14.144L27.2722 14.1406C27.6431 13.7897 27.8598 13.3053 27.8742 12.7941C27.8887 12.2829 27.6997 11.7871 27.3491 11.4157C26.9985 11.0443 26.5152 10.8277 26.0054 10.8133C25.4957 10.7988 25.0009 10.9877 24.63 11.3387C24.6282 11.3403 24.6265 11.3419 24.6248 11.3435L18.8838 16.6807C18.5551 16.9862 18.041 16.9675 17.7355 16.6389C17.4299 16.3102 17.4487 15.7961 17.7773 15.4906L23.5159 10.1557Z" fill="#29A8D3"/>
<path fill-rule="evenodd" clip-rule="evenodd" d="M22.1376 0.986383C23.1076 0.66053 24.1592 0.671864 25.1219 1.01855C26.0846 1.36523 26.9021 2.02692 27.4418 2.89634C27.9734 3.75276 28.2049 4.76133 28.1006 5.7631C28.0784 7.62023 26.739 9.05468 25.8141 9.97987L21.0334 14.7619C20.7193 15.0761 20.2111 15.0798 19.8925 14.7702L15.1119 10.1248C15.0961 10.1095 15.081 10.0935 15.0665 10.077C14.9894 9.98879 14.9085 9.89805 14.8252 9.80455C13.9579 8.83109 12.8246 7.55921 12.8167 5.73555C12.7747 4.75715 13.0453 3.79056 13.5894 2.976C14.1371 2.15616 14.9332 1.5335 15.8608 1.19947C16.7883 0.865447 17.7986 0.837669 18.7431 1.12022C19.363 1.30566 19.9331 1.61834 20.4191 2.03427C20.9034 1.56376 21.4896 1.20408 22.1376 0.986383ZM24.5713 2.54744C23.9532 2.32483 23.2779 2.31755 22.6551 2.52678C22.0323 2.73602 21.4983 3.14952 21.1397 3.70034C20.995 3.92258 20.751 4.06023 20.4859 4.06909C20.2209 4.07795 19.9682 3.9569 19.809 3.74481C19.4257 3.2342 18.8889 2.85998 18.2774 2.67705C17.6659 2.49413 17.0119 2.51211 16.4113 2.72836C15.8108 2.94462 15.2953 3.34777 14.9407 3.87868C14.586 4.4096 14.4108 5.0403 14.4408 5.67819C14.4414 5.69091 14.4417 5.70365 14.4417 5.7164C14.4417 6.90487 15.1593 7.72108 16.0949 8.78523C16.1518 8.84994 16.2095 8.91556 16.2678 8.98223L20.4505 13.0466L24.6649 8.83098C25.6445 7.85108 26.4758 6.84247 26.4758 5.7164C26.4758 5.68555 26.4776 5.65473 26.4811 5.62409C26.5558 4.97098 26.4078 4.3118 26.0611 3.75338C25.7145 3.19497 25.1895 2.77005 24.5713 2.54744Z" fill="#29A8D3"/>
</svg>
