<svg width="28" height="28" viewBox="0 0 28 28" fill="none" xmlns="http://www.w3.org/2000/svg">
<path fill-rule="evenodd" clip-rule="evenodd" d="M12.879 12.3167C13.2194 11.9763 13.5848 11.6666 13.9709 11.3894C15.4512 10.3266 17.2355 9.74168 19.0811 9.73553C19.5552 9.73395 20.0255 9.77059 20.4879 9.84376C21.1085 9.94196 21.7148 10.106 22.2968 10.3317C23.4098 10.7633 24.4343 11.4207 25.3003 12.2753C26.1276 13.0916 26.7852 14.0635 27.2353 15.135C27.6854 16.2065 27.9191 17.3565 27.9229 18.5186C27.9268 19.6808 27.7008 20.8323 27.2578 21.9068C26.8148 22.9812 26.1637 23.9575 25.3419 24.7793C24.5202 25.6011 23.5439 26.2522 22.4695 26.6952C21.395 27.1382 20.2436 27.3643 19.0814 27.3604C17.9192 27.3566 16.7692 27.1229 15.6977 26.6728C14.6262 26.2228 13.6543 25.5652 12.838 24.738C11.9835 23.8721 11.3262 22.848 10.8946 21.7352C10.6686 21.1529 10.5045 20.5463 10.4063 19.9254C10.3331 19.4631 10.2965 18.9929 10.298 18.5189C10.3055 16.2576 11.1818 14.0884 12.7412 12.4577C12.7865 12.4102 12.8325 12.3632 12.879 12.3167ZM19.0866 11.3605C17.6717 11.3652 16.301 11.787 15.139 12.5574C14.7422 12.8204 14.3697 13.1241 14.0281 13.4657C13.9815 13.5123 13.9357 13.5594 13.8906 13.6071C12.6612 14.9058 11.9594 16.6174 11.9244 18.4073C11.9236 18.4463 11.9232 18.4852 11.923 18.5242C11.9209 19.1807 12.0085 19.8283 12.1793 20.4505C12.4308 21.3667 12.8626 22.2278 13.4531 22.9814L23.5437 12.8905C22.7902 12.3 21.9291 11.8683 21.013 11.6168C20.3907 11.446 19.7431 11.3583 19.0866 11.3605ZM24.7013 14.031L14.5937 24.1389C15.1188 24.5632 15.7022 24.9122 16.327 25.1746C17.201 25.5417 18.1389 25.7323 19.0867 25.7354C20.0346 25.7386 20.9738 25.5542 21.8501 25.1929C22.7264 24.8316 23.5226 24.3005 24.1929 23.6303C24.8631 22.96 25.3942 22.1638 25.7555 21.2874C26.1167 20.4111 26.3011 19.4719 26.2979 18.5241C26.2948 17.5762 26.1042 16.6383 25.7371 15.7644C25.4746 15.1395 25.1256 14.5561 24.7013 14.031Z" fill="#29A8D3"/>
<path d="M9.31927 21.0124C7.74497 22.5867 5.19253 22.5867 3.61823 21.0124C2.04392 19.4381 2.04392 16.8857 3.61823 15.3114L9.60655 9.32306L12.7412 12.4577C12.7865 12.4102 12.8325 12.3632 12.879 12.3167C13.2194 11.9763 13.5848 11.6666 13.9709 11.3894L10.7556 8.17401L15.3739 3.55573C16.9482 1.98142 19.5006 1.98142 21.0749 3.55573C22.6492 5.13003 22.6492 7.68247 21.0749 9.25677L20.4879 9.84376C21.1085 9.94196 21.7148 10.106 22.2968 10.3317C24.4326 8.1175 24.4083 4.59103 22.224 2.40668C20.0151 0.197775 16.4337 0.197774 14.2248 2.40668L2.46918 14.1623C0.260274 16.3712 0.260274 19.9526 2.46918 22.1615C4.67808 24.3704 8.25942 24.3704 10.4683 22.1615L10.8946 21.7352C10.6686 21.1529 10.5045 20.5463 10.4063 19.9254L9.31927 21.0124Z" fill="#29A8D3"/>
</svg>
