<svg width="24" height="27" viewBox="0 0 24 27" fill="none" xmlns="http://www.w3.org/2000/svg">
<path fill-rule="evenodd" clip-rule="evenodd" d="M1.82855 25.375H22.1722C21.3656 20.7771 17.1648 17.1875 12.0004 17.1875C6.83593 17.1875 2.63518 20.7771 1.82855 25.375ZM0.133114 25.7522C0.781969 20.0224 5.84757 15.5625 12.0004 15.5625C18.1532 15.5625 23.2188 20.0224 23.8677 25.7522C23.9453 26.4382 23.3782 27 22.6879 27H1.31289C0.622534 27 0.0554327 26.4382 0.133114 25.7522Z" fill="#29A8D3"/>
<path fill-rule="evenodd" clip-rule="evenodd" d="M7.22591 2.92519C8.49145 1.65299 10.2088 0.9375 12.0004 0.9375C13.792 0.9375 15.5093 1.65299 16.7749 2.92519C18.0403 4.19725 18.7504 5.92162 18.7504 7.71875C18.7504 9.51588 18.0403 11.2403 16.7749 12.5123C15.5093 13.7845 13.792 14.5 12.0004 14.5C10.2088 14.5 8.49145 13.7845 7.22591 12.5123C5.96052 11.2403 5.25039 9.51588 5.25039 7.71875C5.25039 5.92162 5.96052 4.19725 7.22591 2.92519ZM12.0004 2.5625C10.6425 2.5625 9.33943 3.1047 8.37797 4.07122C7.41637 5.03788 6.87539 6.34985 6.87539 7.71875C6.87539 9.08765 7.41637 10.3996 8.37797 11.3663C9.33943 12.3328 10.6425 12.875 12.0004 12.875C13.3582 12.875 14.6613 12.3328 15.6228 11.3663C16.5844 10.3996 17.1254 9.08764 17.1254 7.71875C17.1254 6.34986 16.5844 5.03788 15.6228 4.07122C14.6613 3.1047 13.3582 2.5625 12.0004 2.5625Z" fill="#29A8D3"/>
<path fill-rule="evenodd" clip-rule="evenodd" d="M10.3596 5.25C10.3596 4.90482 10.6394 4.625 10.9846 4.625H13.0162C13.3614 4.625 13.6412 4.90482 13.6412 5.25V6.04667H14.4379C14.7831 6.04667 15.0629 6.32649 15.0629 6.67167V8.70333C15.0629 9.04851 14.7831 9.32833 14.4379 9.32833H13.6412V10.125C13.6412 10.4702 13.3614 10.75 13.0162 10.75H10.9846C10.6394 10.75 10.3596 10.4702 10.3596 10.125V9.32833H9.56289C9.21771 9.32833 8.93789 9.04851 8.93789 8.70333V6.67167C8.93789 6.32649 9.21771 6.04667 9.56289 6.04667H10.3596V5.25ZM11.6096 5.875V6.67167C11.6096 7.01685 11.3297 7.29667 10.9846 7.29667H10.1879V8.07833H10.9846C11.3297 8.07833 11.6096 8.35815 11.6096 8.70333V9.5H12.3912V8.70333C12.3912 8.35815 12.671 8.07833 13.0162 8.07833H13.8129V7.29667H13.0162C12.671 7.29667 12.3912 7.01685 12.3912 6.67167V5.875H11.6096Z" fill="#29A8D3"/>
</svg>
