<svg width="48" height="68" viewBox="0 0 48 68" fill="none" xmlns="http://www.w3.org/2000/svg">
<path fill-rule="evenodd" clip-rule="evenodd" d="M14.0003 3.99984H10.667V22.6915C10.6673 23.8139 10.2557 24.8974 9.51033 25.7365C5.96305 29.7299 4.00272 34.8851 4.00033 40.2265V63.0948C4.00033 63.5948 4.40533 63.9998 4.90533 63.9998H19.762C20.262 63.9998 20.667 63.5948 20.667 63.0948V40.2265C20.667 34.8848 18.707 29.7282 15.1587 25.7365C14.4127 24.8976 14.0005 23.8141 14.0003 22.6915V3.99984ZM14.0003 0.666504C14.8844 0.666504 15.7322 1.01769 16.3573 1.64281C16.9825 2.26794 17.3337 3.11578 17.3337 3.99984V22.6915C17.3337 22.9982 17.4453 23.2915 17.6503 23.5215C21.7394 28.1255 23.9986 34.0688 24.0003 40.2265V63.0948C24.0003 64.2189 23.5538 65.297 22.7589 66.0918C21.9641 66.8866 20.8861 67.3332 19.762 67.3332H4.90533C4.34874 67.3332 3.7976 67.2235 3.28339 67.0106C2.76917 66.7976 2.30194 66.4854 1.90837 66.0918C1.51481 65.6982 1.20261 65.231 0.989615 64.7168C0.776619 64.2026 0.666992 63.6514 0.666992 63.0948V40.2265C0.668729 34.0688 2.92795 28.1255 7.01699 23.5215C7.22062 23.2929 7.33329 22.9976 7.33366 22.6915V3.99984C7.33366 3.11578 7.68485 2.26794 8.30997 1.64281C8.93509 1.01769 9.78294 0.666504 10.667 0.666504H14.0003Z" fill="#29A8D3"/>
<path fill-rule="evenodd" clip-rule="evenodd" d="M20.667 43.9998H4.00033V53.9998H20.667V43.9998ZM0.666992 40.6665V57.3332H24.0003V40.6665H0.666992ZM32.332 23.9998L30.9603 36.9132C30.8643 37.8076 30.9575 38.7121 31.234 39.5681C31.5105 40.4241 31.9641 41.2123 32.5652 41.8815C33.1663 42.5506 33.9016 43.0858 34.7231 43.4521C35.5447 43.8185 36.4341 44.0078 37.3337 44.0078C38.2332 44.0078 39.1226 43.8185 39.9442 43.4521C40.7657 43.0858 41.501 42.5506 42.1021 41.8815C42.7033 41.2123 43.1568 40.4241 43.4333 39.5681C43.7098 38.7121 43.8031 37.8076 43.707 36.9132L42.3353 23.9998H32.332ZM45.3337 20.6665H29.3337L27.6453 36.5598C27.5003 37.9188 27.6428 39.2932 28.0636 40.5935C28.4844 41.8938 29.1741 43.0911 30.0878 44.1075C31.0015 45.1239 32.1188 45.9367 33.3672 46.493C34.6155 47.0494 35.9669 47.337 37.3337 47.337C38.7004 47.337 40.0518 47.0494 41.3002 46.493C42.5485 45.9367 43.6658 45.1239 44.5795 44.1075C45.4932 43.0911 46.1829 41.8938 46.6037 40.5935C47.0245 39.2932 47.167 37.9188 47.022 36.5598L45.3337 20.6665Z" fill="#29A8D3"/>
<path fill-rule="evenodd" clip-rule="evenodd" d="M35.667 65.6665V45.6665H39.0003V65.6665H35.667Z" fill="#29A8D3"/>
<path fill-rule="evenodd" clip-rule="evenodd" d="M29 65.6667C29 65.2246 29.1756 64.8007 29.4882 64.4882C29.8007 64.1756 30.2246 64 30.6667 64H44C44.442 64 44.866 64.1756 45.1785 64.4882C45.4911 64.8007 45.6667 65.2246 45.6667 65.6667C45.6667 66.1087 45.4911 66.5326 45.1785 66.8452C44.866 67.1577 44.442 67.3333 44 67.3333H30.6667C30.2246 67.3333 29.8007 67.1577 29.4882 66.8452C29.1756 66.5326 29 66.1087 29 65.6667ZM44.8333 37.3333H29.8333V34H44.8333V37.3333Z" fill="#29A8D3"/>
</svg>
