<svg width="64" height="68" viewBox="0 0 64 68" fill="none" xmlns="http://www.w3.org/2000/svg">
<path fill-rule="evenodd" clip-rule="evenodd" d="M50.0507 30.3862C51.576 28.9418 53.6113 28.1623 55.7107 28.2219C57.8132 28.2816 59.804 29.1779 61.2458 30.7106C62.6873 32.2429 63.4623 34.2857 63.4031 36.3894C63.344 38.4909 62.4571 40.4848 60.9343 41.9328C60.9327 41.9344 60.9311 41.9359 60.9295 41.9374L47.4703 54.8701C44.9782 57.6873 41.4743 59.042 37.765 59.042H25.9996C24.6675 59.042 23.8989 59.4771 23.5093 59.9988C23.4249 60.112 23.3288 60.2161 23.2227 60.3093L20.1399 63.019L21.5564 64.442C22.3479 65.237 22.345 66.5231 21.5499 67.3146C20.7549 68.106 19.4688 68.1031 18.6773 67.308L15.7492 64.3666C15.7412 64.3587 15.7333 64.3508 15.7255 64.3428L4.29732 52.8626C4.1744 52.7824 4.05833 52.6875 3.95161 52.578C3.85539 52.4792 3.77125 52.3732 3.69915 52.2617L1.02918 49.5796C0.237733 48.7846 0.240652 47.4985 1.0357 46.707C1.83075 45.9156 3.11687 45.9185 3.90832 46.7135L5.45974 48.272L20.3344 33.7764C21.7111 32.0306 23.8269 31.3166 25.9694 31.3166H34.7822C36.886 31.3166 38.8993 32.1614 40.3804 33.6582C41.4235 34.7123 42.1426 36.0288 42.4764 37.4516L50.0507 30.3862ZM40.1966 45.0923C38.735 46.4767 36.8002 47.2541 34.7822 47.2541H28.907C27.7852 47.2541 26.8757 46.3447 26.8757 45.2228C26.8757 44.101 27.7852 43.1916 28.907 43.1916H34.7822C35.7947 43.1916 36.7701 42.7853 37.4926 42.0551C38.2159 41.3241 38.6261 40.3282 38.6261 39.2853C38.6261 38.2424 38.2159 37.2465 37.4926 36.5156C36.7701 35.7854 35.7947 35.3791 34.7822 35.3791H25.9694C24.644 35.3791 23.878 35.8139 23.4879 36.3396C23.4234 36.4266 23.352 36.5082 23.2744 36.5838L8.326 51.1513L17.2683 60.1343L20.3974 57.3839C21.7774 55.6763 23.8769 54.9795 25.9996 54.9795H37.765C40.4958 54.9795 42.8471 53.9932 44.4691 52.131C44.5086 52.0856 44.5501 52.0421 44.5934 52.0004L58.1237 38.9996L58.1325 38.9911C58.8769 38.2845 59.3131 37.3077 59.3422 36.2751C59.3713 35.2425 58.9906 34.2423 58.2869 33.4942C57.5834 32.7464 56.615 32.3117 55.5954 32.2828C54.5758 32.2538 53.5849 32.6328 52.8408 33.3391C52.8365 33.3432 52.8322 33.3473 52.8278 33.3513L40.4742 44.8748C40.3865 44.9565 40.2936 45.029 40.1966 45.0923Z" fill="#29A8D3"/>
<path fill-rule="evenodd" clip-rule="evenodd" d="M35.0328 2.75C35.0328 1.62817 35.9422 0.71875 37.064 0.71875H47.8735C48.9953 0.71875 49.9047 1.62817 49.9047 2.75V8.28277H55.4375C56.5593 8.28277 57.4688 9.1922 57.4688 10.314V21.1235C57.4688 22.2453 56.5593 23.1547 55.4375 23.1547H49.9047V28.6875C49.9047 29.8093 48.9953 30.7188 47.8735 30.7188H37.064C35.9422 30.7188 35.0328 29.8093 35.0328 28.6875V23.1547H29.5C28.3782 23.1547 27.4688 22.2453 27.4688 21.1235V10.314C27.4688 9.1922 28.3782 8.28277 29.5 8.28277H35.0328V2.75ZM39.0953 4.78125V10.314C39.0953 11.4359 38.1859 12.3453 37.064 12.3453H31.5313V19.0922H37.064C38.1859 19.0922 39.0953 20.0016 39.0953 21.1235V26.6562H45.8422V21.1235C45.8422 20.0016 46.7517 19.0922 47.8735 19.0922H53.4063V12.3453H47.8735C46.7517 12.3453 45.8422 11.4359 45.8422 10.314V4.78125H39.0953Z" fill="#29A8D3"/>
</svg>
