<svg width="68" height="68" viewBox="0 0 68 68" fill="none" xmlns="http://www.w3.org/2000/svg">
<path fill-rule="evenodd" clip-rule="evenodd" d="M30.1976 29.7917C31.0486 28.9407 31.9621 28.1664 32.9274 27.4734C36.6279 24.8166 41.0887 23.3542 45.7029 23.3388C46.8881 23.3349 48.0639 23.4265 49.2198 23.6094C50.7712 23.8549 52.2869 24.2649 53.742 24.8292C56.5246 25.9083 59.0856 27.5518 61.2508 29.6883C63.3189 31.7291 64.9629 34.1588 66.0881 36.8376C67.2134 39.5163 67.7977 42.3911 67.8073 45.2966C67.817 48.2021 67.2519 51.0808 66.1445 53.7669C65.0371 56.4531 63.4093 58.8937 61.3549 60.9482C59.3004 63.0027 56.8598 64.6306 54.1737 65.738C51.4876 66.8455 48.6089 67.4107 45.7034 67.4011C42.798 67.3915 39.9231 66.8073 37.2443 65.6821C34.5656 64.5569 32.1358 62.913 30.095 60.8449C27.9588 58.6803 26.3156 56.12 25.2364 53.3381C24.6716 51.8823 24.2613 50.3658 24.0157 48.8136C23.8328 47.6578 23.7412 46.4822 23.7451 45.2972C23.7638 39.644 25.9545 34.221 29.8529 30.1442C29.9664 30.0255 30.0812 29.908 30.1976 29.7917ZM45.7164 27.4013C42.1792 27.4131 38.7526 28.4675 35.8474 30.3934C34.8554 31.051 33.9242 31.8103 33.0702 32.6643C32.9539 32.7807 32.8392 32.8985 32.7264 33.0177C29.6529 36.2645 27.8984 40.5436 27.8109 45.0183C27.809 45.1157 27.8079 45.2131 27.8076 45.3106C27.8021 46.9518 28.0213 48.5707 28.4483 50.1262C29.0771 52.4167 30.1565 54.5696 31.6328 56.4534L56.8593 31.2263C54.9756 29.7501 52.8228 28.6708 50.5324 28.0421C48.9768 27.615 47.3578 27.3958 45.7164 27.4013ZM59.7533 34.0776L34.4842 59.3473C35.797 60.4079 37.2554 61.2804 38.8176 61.9366C41.0024 62.8543 43.3471 63.3308 45.7169 63.3386C48.0866 63.3464 50.4344 62.8855 52.6252 61.9822C54.8161 61.079 56.8066 59.7513 58.4822 58.0756C60.1578 56.4 61.4855 54.4094 62.3887 52.2186C63.2918 50.0277 63.7528 47.6798 63.7449 45.3101C63.737 42.9404 63.2604 40.5957 62.3427 38.4109C61.6865 36.8487 60.8139 35.3904 59.7533 34.0776Z" fill="#29A8D3"/>
<path d="M21.2982 51.5311C17.3624 55.4668 10.9813 55.4668 7.04556 51.5311C3.10981 47.5953 3.10981 41.2142 7.04556 37.2784L22.0164 22.3076L29.8529 30.1442C29.9664 30.0255 30.0812 29.908 30.1976 29.7917C31.0486 28.9407 31.9621 28.1664 32.9274 27.4734L24.889 19.435L36.4347 7.88931C40.3704 3.95356 46.7516 3.95356 50.6873 7.88931C54.6231 11.8251 54.6231 18.2062 50.6873 22.1419L49.2198 23.6094C50.7712 23.8549 52.2869 24.2649 53.742 24.8292C59.0815 19.2937 59.0208 10.4776 53.5599 5.01669C48.0377 -0.505564 39.0843 -0.505565 33.5621 5.01669L4.17294 34.4058C-1.34932 39.9281 -1.34931 48.8814 4.17294 54.4037C9.6952 59.9259 18.6485 59.9259 24.1708 54.4037L25.2364 53.3381C24.6716 51.8823 24.2613 50.3658 24.0157 48.8136L21.2982 51.5311Z" fill="#29A8D3"/>
</svg>
