<svg width="392" height="310" viewBox="0 0 392 310" fill="none" xmlns="http://www.w3.org/2000/svg">
<rect width="392" height="310" rx="24" fill="#F4FBFD"/>
<path d="M167.719 164.748V138.728C167.719 138.397 167.788 138.2 167.929 138.135C168.08 138.07 168.243 138.038 168.407 138.041H170.976L171.166 143.688L170.249 144.795C170.325 145.459 170.395 146.076 170.459 146.646C170.523 147.216 170.586 147.871 170.649 148.611C170.713 149.349 170.777 150.138 170.841 150.976C170.905 151.814 170.962 152.66 171.013 153.513C171.064 154.366 171.09 155.199 171.09 156.013L171.166 164.065C171.166 164.294 171.109 164.453 170.994 164.542C170.88 164.63 170.58 164.689 170.095 164.713C169.611 164.738 168.814 164.748 167.719 164.748ZM174.489 158.719L172.577 152.842C172.415 152.432 172.281 152.011 172.175 151.582C172.009 150.972 171.818 150.26 171.602 149.446C171.386 148.632 171.156 147.798 170.912 146.946C170.671 146.094 170.454 145.299 170.262 144.561C170.071 143.822 169.86 142.994 169.631 142.078L170.976 138.036L174.418 148.873C174.571 149.331 174.717 149.802 174.858 150.285C174.998 150.768 175.119 151.213 175.221 151.621L175.565 152.991C175.667 152.507 175.776 152.056 175.891 151.636C176.006 151.216 176.121 150.777 176.235 150.32C176.349 149.862 176.483 149.417 176.637 148.984L179.734 138.719L181.342 142.23C181.086 143.094 180.863 143.889 180.672 144.614C180.481 145.34 180.27 146.128 180.041 146.98C179.811 147.831 179.582 148.652 179.352 149.441C179.122 150.23 178.923 150.93 178.754 151.54C178.642 151.979 178.508 152.413 178.352 152.839L176.36 158.41C176.341 158.504 176.287 158.588 176.209 158.644C176.131 158.701 176.035 158.726 175.939 158.715L174.489 158.719ZM179.729 164.748L179.845 156.124C179.87 155.336 179.908 154.509 179.96 153.643C180.011 152.777 180.068 151.912 180.131 151.048C180.194 150.184 180.258 149.37 180.323 148.606C180.388 147.841 180.445 147.167 180.495 146.584C180.546 145.999 180.61 145.35 180.687 144.638L179.729 143.873V138.723C179.784 138.539 179.868 138.365 179.978 138.207C180.033 138.146 180.101 138.099 180.178 138.069C180.254 138.039 180.336 138.028 180.418 138.036H183.287V164.056C183.287 164.285 183.235 164.445 183.134 164.533C183.033 164.621 182.738 164.68 182.254 164.705C181.77 164.73 180.928 164.748 179.729 164.748Z" fill="#143A44"/>
<path d="M192.123 165.129C190.873 165.129 189.815 164.926 188.948 164.519C188.082 164.112 187.374 163.387 186.824 162.344C186.277 161.301 185.875 159.882 185.621 158.089C185.366 156.295 185.238 154.013 185.237 151.241C185.237 147.832 185.505 145.142 186.04 143.17C186.575 141.198 187.385 139.787 188.469 138.937C189.554 138.085 190.912 137.659 192.544 137.658C193.789 137.658 194.847 137.874 195.719 138.307C196.59 138.739 197.292 139.465 197.823 140.483C198.358 141.501 198.747 142.874 198.989 144.604C199.232 146.334 199.352 148.509 199.352 151.129C199.352 154.667 199.097 157.452 198.587 159.487C198.078 161.521 197.294 162.971 196.235 163.837C195.176 164.699 193.806 165.13 192.123 165.129ZM192.276 161.542C192.665 161.555 193.051 161.467 193.396 161.286C193.741 161.106 194.034 160.839 194.246 160.513C194.717 159.825 195.055 158.719 195.259 157.192C195.463 155.666 195.566 153.669 195.566 151.201C195.566 148.759 195.483 146.808 195.317 145.35C195.151 143.892 194.845 142.842 194.399 142.201C193.952 141.565 193.308 141.248 192.467 141.248C191.676 141.248 191.038 141.597 190.554 142.297C190.071 142.997 189.72 144.135 189.502 145.712C189.286 147.289 189.177 149.413 189.177 152.085C189.177 154.326 189.267 156.139 189.445 157.522C189.624 158.906 189.941 159.922 190.398 160.57C190.602 160.878 190.882 161.13 191.211 161.3C191.54 161.47 191.906 161.553 192.276 161.542Z" fill="#143A44"/>
<path d="M201.302 164.748V138.727C201.302 138.478 201.347 138.294 201.437 138.192C201.526 138.09 201.709 138.04 201.991 138.04H204.092C204.45 138.04 204.68 138.269 204.781 138.727V164.061C204.781 164.29 204.73 164.449 204.628 164.537C204.526 164.626 204.238 164.684 203.767 164.709C203.297 164.734 202.474 164.748 201.302 164.748ZM202.412 154.062C202.003 154.062 201.789 154 201.762 153.872C201.729 153.644 201.716 153.414 201.723 153.184V138.76C201.723 138.71 201.723 138.575 201.742 138.359C201.76 138.142 201.915 138.035 202.22 138.035H205.706C207.314 138.035 208.652 138.284 209.722 138.782C210.786 139.273 211.635 140.135 212.109 141.206C212.631 142.326 212.892 143.814 212.893 145.671C212.893 147.299 212.695 148.654 212.299 149.736C211.903 150.817 211.374 151.676 210.712 152.312C210.073 152.931 209.298 153.394 208.45 153.662C207.583 153.933 206.681 154.067 205.773 154.062H202.412ZM204.745 150.857H206.16C206.721 150.875 207.27 150.692 207.709 150.342C208.13 149.998 208.449 149.417 208.665 148.599C208.882 147.781 208.991 146.674 208.991 145.28C209.006 144.515 208.922 143.752 208.742 143.009C208.576 142.386 208.309 141.908 207.939 141.577C207.57 141.246 207.053 141.08 206.389 141.079H204.745V150.857Z" fill="#143A44"/>
<path d="M214.426 164.749V138.728C214.554 138.27 214.771 138.041 215.077 138.041H224.258C224.258 138.982 224.251 139.669 224.238 140.101C224.224 140.534 224.173 140.82 224.084 140.961C223.995 141.1 223.835 141.17 223.606 141.17H217.903V161.625H224.281C224.281 162.591 224.275 163.297 224.263 163.742C224.25 164.186 224.199 164.466 224.109 164.581C224.02 164.695 223.86 164.752 223.631 164.752L214.426 164.749ZM214.809 151.851V148.645H223.3C223.3 149.968 223.275 150.833 223.224 151.239C223.174 151.646 222.98 151.85 222.643 151.851H214.809Z" fill="#143A44"/>
<path d="M216.018 114.17V105.445H223.438C223.737 105.445 223.945 105.353 224.061 105.171C224.177 104.989 224.244 104.615 224.26 104.051C224.276 103.487 224.285 102.589 224.285 101.361H212.333C211.935 101.361 211.652 101.66 211.486 102.258V117.387C212.211 116.525 213.902 115.07 216.018 114.17Z" fill="#29A8D3"/>
<path d="M216.018 119.39H222.193C222.625 119.39 222.874 119.124 222.94 118.593C222.964 118.402 222.999 117.794 222.999 117.794C222.999 117.794 222.432 117.373 222.08 117.133C221.16 116.51 220.205 116.178 219.023 116.32C216.699 116.6 214.353 118.436 213.67 119.308C213.03 120.126 212.298 120.868 211.487 121.517V136.227H223.439C223.738 136.227 223.945 136.152 224.062 136.003C224.179 135.854 224.244 135.488 224.261 134.907C224.278 134.327 224.286 133.405 224.286 132.144H216.018V119.39Z" fill="#256472"/>
<path d="M195.821 113.932C195.886 112.982 195.969 112.129 196.07 111.372C196.351 109.313 196.808 107.827 197.439 106.915C198.071 106.003 198.901 105.546 199.929 105.545C201.025 105.545 201.863 105.96 202.444 106.79C203.025 107.62 203.424 108.99 203.639 110.899C203.855 112.808 203.963 115.356 203.963 118.543C203.963 119.186 203.958 119.804 203.947 120.397C204.684 120.659 205.468 120.765 206.249 120.709C207.186 120.621 208.089 120.311 208.882 119.804C208.89 119.36 208.893 118.908 208.893 118.444C208.893 115.023 208.736 112.185 208.42 109.928C208.105 107.671 207.598 105.878 206.901 104.549C206.204 103.221 205.291 102.275 204.162 101.711C203.033 101.146 201.657 100.866 200.034 100.869C197.909 100.869 196.141 101.425 194.73 102.537C193.319 103.65 192.265 105.492 191.568 108.065C191.386 108.735 191.228 109.472 191.095 110.27C192.348 110.867 193.678 111.972 195.821 113.932Z" fill="#29A8D3"/>
<path d="M206.488 123.602C206.298 123.617 206.107 123.626 205.916 123.628C205.218 123.634 204.522 123.553 203.843 123.387C203.778 124.496 203.687 125.487 203.571 126.361C203.304 128.353 202.864 129.797 202.251 130.694C201.638 131.59 200.783 132.038 199.686 132.038C199.205 132.051 198.729 131.942 198.302 131.72C197.875 131.497 197.512 131.17 197.246 130.768C196.649 129.922 196.234 128.594 196.001 126.784C195.769 124.975 195.653 122.61 195.653 119.688C195.653 119.011 195.658 118.361 195.669 117.74C193.197 115.448 191.779 114.142 190.715 113.408C190.586 114.966 190.522 116.694 190.522 118.592C190.522 122.21 190.688 125.19 191.02 127.531C191.352 129.873 191.875 131.724 192.589 133.084C193.302 134.445 194.223 135.391 195.353 135.923C196.482 136.455 197.86 136.722 199.486 136.725C201.677 136.725 203.462 136.16 204.839 135.031C206.217 133.903 207.238 132.01 207.902 129.354C208.324 127.663 208.612 125.575 208.766 123.089C208.035 123.367 207.268 123.539 206.488 123.602Z" fill="#256472"/>
<path d="M186.607 109.627C187.105 109.609 187.564 109.602 187.983 109.61V101.367H184.248C183.982 101.367 183.791 101.442 183.675 101.591C183.531 101.796 183.422 102.023 183.352 102.264L180.554 111.551C182.271 110.498 184.253 109.709 186.607 109.627Z" fill="#29A8D3"/>
<path d="M171.738 117.801C171.666 116.871 171.595 115.989 171.524 115.158C171.441 114.195 171.358 113.34 171.275 112.594C171.192 111.847 171.101 111.042 171.001 110.178L171.08 110.084C171.315 110.989 171.578 111.951 171.873 112.992C172.188 114.103 172.487 115.191 172.769 116.254C172.86 116.6 172.948 116.932 173.033 117.25C173.752 116.871 174.431 116.419 175.058 115.902C175.44 115.59 175.831 115.254 176.237 114.906L171.948 101.367H168.61C168.396 101.363 168.183 101.406 167.987 101.492C167.805 101.575 167.713 101.832 167.713 102.264V118.118C169.061 118.346 170.443 118.237 171.738 117.801Z" fill="#29A8D3"/>
<path d="M179.124 116.238C178.999 116.618 178.893 117.004 178.795 117.398C178.646 117.996 178.496 118.569 178.347 119.116C178.197 119.664 178.056 120.253 177.924 120.884C177.758 120.22 177.608 119.623 177.475 119.091C177.383 118.727 177.279 118.336 177.164 117.924L176.891 118.15C175.954 118.923 174.922 119.573 173.82 120.085C173.902 120.34 173.976 120.542 174.039 120.685L176.529 128.354H178.422C178.72 128.354 178.902 128.221 178.969 127.956L181.559 120.685C181.691 120.353 181.865 119.789 182.082 118.992C182.299 118.195 182.556 117.282 182.854 116.253C183.14 115.267 183.426 114.242 183.713 113.178C182.006 113.87 180.534 115.029 179.124 116.238Z" fill="#256472"/>
<path d="M171.997 121.557C171.981 121.289 171.963 121.024 171.946 120.758C170.566 121.12 169.13 121.216 167.713 121.042V136.228C169.14 136.228 170.169 136.212 170.801 136.178C171.431 136.145 171.822 136.07 171.971 135.954C172.121 135.838 172.195 135.631 172.195 135.332L172.096 124.824C172.096 123.757 172.063 122.668 171.997 121.557Z" fill="#256472"/>
<path d="M186.708 112.528C185.892 112.556 185.084 112.701 184.309 112.958C184.252 113.614 184.19 114.347 184.124 115.157C184.041 116.153 183.958 117.216 183.875 118.344C183.792 119.473 183.717 120.602 183.651 121.731C183.583 122.859 183.534 123.938 183.501 124.968L183.352 136.223C184.911 136.223 186.007 136.206 186.639 136.173C187.27 136.14 187.652 136.065 187.784 135.949C187.916 135.832 187.983 135.625 187.983 135.326V112.504C187.61 112.497 187.196 112.51 186.708 112.528Z" fill="#256472"/>
<path d="M70.36 209.69V207.75L70.8 208.13H70.26C68.9 208.13 67.7333 207.883 66.76 207.39C65.7867 206.897 65.04 206.203 64.52 205.31C64 204.403 63.74 203.33 63.74 202.09C63.74 200.197 64.3067 198.723 65.44 197.67C66.5867 196.603 68.1933 196.07 70.26 196.07H70.8L70.36 196.43V194.61H72V196.43L71.56 196.07H72.1C74.18 196.07 75.7867 196.603 76.92 197.67C78.0533 198.723 78.62 200.197 78.62 202.09C78.62 203.33 78.36 204.403 77.84 205.31C77.32 206.203 76.5733 206.897 75.6 207.39C74.6267 207.883 73.46 208.13 72.1 208.13H71.56L72 207.75V209.69H70.36ZM70.36 207.15V197.03L70.76 197.39H70.02C68.6067 197.39 67.4867 197.797 66.66 198.61C65.8467 199.41 65.44 200.57 65.44 202.09C65.44 203.063 65.6267 203.903 66 204.61C66.3867 205.317 66.92 205.863 67.6 206.25C68.2933 206.623 69.1 206.81 70.02 206.81H70.76L70.36 207.15ZM72 207.15L71.6 206.81H72.34C73.26 206.81 74.0667 206.623 74.76 206.25C75.4533 205.863 75.9867 205.317 76.36 204.61C76.7333 203.903 76.92 203.063 76.92 202.09C76.92 200.57 76.5067 199.41 75.68 198.61C74.8667 197.797 73.7533 197.39 72.34 197.39H71.6L72 197.03V207.15ZM85.6633 209.43C84.7033 209.43 83.8633 209.223 83.1433 208.81C82.4366 208.383 81.8899 207.783 81.5033 207.01C81.1166 206.223 80.9233 205.297 80.9233 204.23C80.9233 203.15 81.1166 202.223 81.5033 201.45C81.8899 200.677 82.4366 200.083 83.1433 199.67C83.8633 199.243 84.7033 199.03 85.6633 199.03C86.6366 199.03 87.4766 199.243 88.1833 199.67C88.9033 200.083 89.4566 200.677 89.8433 201.45C90.2433 202.223 90.4433 203.15 90.4433 204.23C90.4433 205.297 90.2433 206.223 89.8433 207.01C89.4566 207.783 88.9033 208.383 88.1833 208.81C87.4766 209.223 86.6366 209.43 85.6633 209.43ZM85.6633 208.11C86.6233 208.11 87.3833 207.783 87.9433 207.13C88.5033 206.463 88.7833 205.497 88.7833 204.23C88.7833 202.95 88.4966 201.983 87.9233 201.33C87.3633 200.663 86.6099 200.33 85.6633 200.33C84.7166 200.33 83.9633 200.663 83.4033 201.33C82.8433 201.983 82.5633 202.95 82.5633 204.23C82.5633 205.497 82.8433 206.463 83.4033 207.13C83.9633 207.783 84.7166 208.11 85.6633 208.11ZM95.2244 209.25V200.51H91.5844V199.21H100.504V200.51H96.8444V209.25H95.2244ZM106.347 209.43C105.387 209.43 104.547 209.223 103.827 208.81C103.12 208.383 102.574 207.783 102.187 207.01C101.8 206.223 101.607 205.297 101.607 204.23C101.607 203.15 101.8 202.223 102.187 201.45C102.574 200.677 103.12 200.083 103.827 199.67C104.547 199.243 105.387 199.03 106.347 199.03C107.32 199.03 108.16 199.243 108.867 199.67C109.587 200.083 110.14 200.677 110.527 201.45C110.927 202.223 111.127 203.15 111.127 204.23C111.127 205.297 110.927 206.223 110.527 207.01C110.14 207.783 109.587 208.383 108.867 208.81C108.16 209.223 107.32 209.43 106.347 209.43ZM106.347 208.11C107.307 208.11 108.067 207.783 108.627 207.13C109.187 206.463 109.467 205.497 109.467 204.23C109.467 202.95 109.18 201.983 108.607 201.33C108.047 200.663 107.294 200.33 106.347 200.33C105.4 200.33 104.647 200.663 104.087 201.33C103.527 201.983 103.247 202.95 103.247 204.23C103.247 205.497 103.527 206.463 104.087 207.13C104.647 207.783 105.4 208.11 106.347 208.11ZM118.983 209.25V199.21H123.823C124.983 199.21 125.849 199.437 126.423 199.89C127.009 200.33 127.303 200.983 127.303 201.85C127.303 202.49 127.076 203.03 126.623 203.47C126.183 203.897 125.609 204.15 124.903 204.23V203.99C125.729 204.017 126.389 204.257 126.883 204.71C127.376 205.163 127.623 205.75 127.623 206.47C127.623 207.337 127.303 208.017 126.663 208.51C126.036 209.003 125.143 209.25 123.983 209.25H118.983ZM120.523 208.15H123.903C124.609 208.15 125.149 208.003 125.523 207.71C125.909 207.403 126.103 206.97 126.103 206.41C126.103 205.85 125.909 205.423 125.523 205.13C125.149 204.837 124.609 204.69 123.903 204.69H120.523V208.15ZM120.523 203.59H123.723C124.376 203.59 124.883 203.443 125.243 203.15C125.603 202.857 125.783 202.45 125.783 201.93C125.783 201.41 125.603 201.01 125.243 200.73C124.883 200.437 124.376 200.29 123.723 200.29H120.523V203.59ZM130.215 213.57V201.53C130.215 201.157 130.195 200.777 130.155 200.39C130.128 199.99 130.095 199.597 130.055 199.21H131.615L131.835 201.59H131.595C131.808 200.803 132.242 200.183 132.895 199.73C133.548 199.263 134.328 199.03 135.235 199.03C136.142 199.03 136.922 199.237 137.575 199.65C138.242 200.063 138.762 200.657 139.135 201.43C139.508 202.203 139.695 203.137 139.695 204.23C139.695 205.31 139.508 206.237 139.135 207.01C138.775 207.783 138.262 208.383 137.595 208.81C136.928 209.223 136.142 209.43 135.235 209.43C134.342 209.43 133.568 209.203 132.915 208.75C132.262 208.297 131.828 207.677 131.615 206.89H131.835V213.57H130.215ZM134.915 208.11C135.875 208.11 136.635 207.783 137.195 207.13C137.768 206.463 138.055 205.497 138.055 204.23C138.055 202.95 137.768 201.983 137.195 201.33C136.635 200.663 135.875 200.33 134.915 200.33C133.968 200.33 133.208 200.663 132.635 201.33C132.075 201.983 131.795 202.95 131.795 204.23C131.795 205.497 132.075 206.463 132.635 207.13C133.208 207.783 133.968 208.11 134.915 208.11ZM146.882 209.43C145.309 209.43 144.069 208.977 143.162 208.07C142.256 207.15 141.802 205.877 141.802 204.25C141.802 203.197 142.002 202.283 142.402 201.51C142.802 200.723 143.362 200.117 144.082 199.69C144.802 199.25 145.629 199.03 146.562 199.03C147.482 199.03 148.256 199.223 148.882 199.61C149.509 199.997 149.989 200.55 150.322 201.27C150.656 201.977 150.822 202.817 150.822 203.79V204.39H143.042V203.37H149.762L149.422 203.63C149.422 202.563 149.182 201.73 148.702 201.13C148.222 200.53 147.509 200.23 146.562 200.23C145.562 200.23 144.782 200.583 144.222 201.29C143.662 201.983 143.382 202.923 143.382 204.11V204.29C143.382 205.543 143.689 206.497 144.302 207.15C144.929 207.79 145.802 208.11 146.922 208.11C147.522 208.11 148.082 208.023 148.602 207.85C149.136 207.663 149.642 207.363 150.122 206.95L150.682 208.09C150.242 208.517 149.682 208.85 149.002 209.09C148.336 209.317 147.629 209.43 146.882 209.43ZM153.416 209.25V199.21H154.776L158.536 205.95L162.316 199.21H163.676V209.25H162.236V201.01H162.656L158.956 207.63H158.136L154.416 200.99H154.856V209.25H153.416ZM171.413 209.43C169.84 209.43 168.6 208.977 167.693 208.07C166.787 207.15 166.333 205.877 166.333 204.25C166.333 203.197 166.533 202.283 166.933 201.51C167.333 200.723 167.893 200.117 168.613 199.69C169.333 199.25 170.16 199.03 171.093 199.03C172.013 199.03 172.787 199.223 173.413 199.61C174.04 199.997 174.52 200.55 174.853 201.27C175.187 201.977 175.353 202.817 175.353 203.79V204.39H167.573V203.37H174.293L173.953 203.63C173.953 202.563 173.713 201.73 173.233 201.13C172.753 200.53 172.04 200.23 171.093 200.23C170.093 200.23 169.313 200.583 168.753 201.29C168.193 201.983 167.913 202.923 167.913 204.11V204.29C167.913 205.543 168.22 206.497 168.833 207.15C169.46 207.79 170.333 208.11 171.453 208.11C172.053 208.11 172.613 208.023 173.133 207.85C173.667 207.663 174.173 207.363 174.653 206.95L175.213 208.09C174.773 208.517 174.213 208.85 173.533 209.09C172.867 209.317 172.16 209.43 171.413 209.43ZM177.948 209.25V199.21H179.568V203.41H185.088V199.21H186.708V209.25H185.088V204.71H179.568V209.25H177.948ZM189.901 209.25V199.21H191.521V203.41H197.041V199.21H198.661V209.25H197.041V204.71H191.521V209.25H189.901ZM206.054 209.43C205.094 209.43 204.254 209.223 203.534 208.81C202.827 208.383 202.281 207.783 201.894 207.01C201.507 206.223 201.314 205.297 201.314 204.23C201.314 203.15 201.507 202.223 201.894 201.45C202.281 200.677 202.827 200.083 203.534 199.67C204.254 199.243 205.094 199.03 206.054 199.03C207.027 199.03 207.867 199.243 208.574 199.67C209.294 200.083 209.847 200.677 210.234 201.45C210.634 202.223 210.834 203.15 210.834 204.23C210.834 205.297 210.634 206.223 210.234 207.01C209.847 207.783 209.294 208.383 208.574 208.81C207.867 209.223 207.027 209.43 206.054 209.43ZM206.054 208.11C207.014 208.11 207.774 207.783 208.334 207.13C208.894 206.463 209.174 205.497 209.174 204.23C209.174 202.95 208.887 201.983 208.314 201.33C207.754 200.663 207.001 200.33 206.054 200.33C205.107 200.33 204.354 200.663 203.794 201.33C203.234 201.983 202.954 202.95 202.954 204.23C202.954 205.497 203.234 206.463 203.794 207.13C204.354 207.783 205.107 208.11 206.054 208.11ZM222.89 209.43C221.93 209.43 221.09 209.223 220.37 208.81C219.663 208.383 219.117 207.783 218.73 207.01C218.343 206.223 218.15 205.297 218.15 204.23C218.15 203.15 218.343 202.223 218.73 201.45C219.117 200.677 219.663 200.083 220.37 199.67C221.09 199.243 221.93 199.03 222.89 199.03C223.863 199.03 224.703 199.243 225.41 199.67C226.13 200.083 226.683 200.677 227.07 201.45C227.47 202.223 227.67 203.15 227.67 204.23C227.67 205.297 227.47 206.223 227.07 207.01C226.683 207.783 226.13 208.383 225.41 208.81C224.703 209.223 223.863 209.43 222.89 209.43ZM222.89 208.11C223.85 208.11 224.61 207.783 225.17 207.13C225.73 206.463 226.01 205.497 226.01 204.23C226.01 202.95 225.723 201.983 225.15 201.33C224.59 200.663 223.837 200.33 222.89 200.33C221.943 200.33 221.19 200.663 220.63 201.33C220.07 201.983 219.79 202.95 219.79 204.23C219.79 205.497 220.07 206.463 220.63 207.13C221.19 207.783 221.943 208.11 222.89 208.11ZM232.451 209.25V200.51H228.811V199.21H237.731V200.51H234.071V209.25H232.451ZM243.673 209.43C242.687 209.43 241.827 209.217 241.093 208.79C240.373 208.363 239.813 207.757 239.413 206.97C239.027 206.183 238.833 205.25 238.833 204.17C238.833 203.077 239.033 202.15 239.433 201.39C239.833 200.617 240.393 200.03 241.113 199.63C241.847 199.23 242.7 199.03 243.673 199.03C244.313 199.03 244.933 199.143 245.533 199.37C246.147 199.597 246.653 199.917 247.053 200.33L246.473 201.49C246.073 201.103 245.633 200.817 245.153 200.63C244.687 200.443 244.227 200.35 243.773 200.35C242.733 200.35 241.927 200.677 241.353 201.33C240.78 201.983 240.493 202.937 240.493 204.19C240.493 205.43 240.78 206.39 241.353 207.07C241.927 207.75 242.733 208.09 243.773 208.09C244.213 208.09 244.667 208.003 245.133 207.83C245.613 207.657 246.06 207.37 246.473 206.97L247.053 208.11C246.64 208.537 246.127 208.863 245.513 209.09C244.9 209.317 244.287 209.43 243.673 209.43ZM249.151 213.79L248.771 212.45C249.398 212.303 249.918 212.13 250.331 211.93C250.758 211.743 251.111 211.49 251.391 211.17C251.671 210.85 251.911 210.45 252.111 209.97L252.631 208.79L252.591 209.47L248.211 199.21H249.971L253.591 208.03H253.071L256.651 199.21H258.351L253.711 210.09C253.444 210.73 253.151 211.263 252.831 211.69C252.511 212.13 252.164 212.483 251.791 212.75C251.431 213.03 251.031 213.25 250.591 213.41C250.151 213.57 249.671 213.697 249.151 213.79ZM262.49 209.25V200.51H258.85V199.21H267.77V200.51H264.11V209.25H262.49ZM273.713 209.43C272.726 209.43 271.866 209.217 271.133 208.79C270.413 208.363 269.853 207.757 269.453 206.97C269.066 206.183 268.873 205.25 268.873 204.17C268.873 203.077 269.073 202.15 269.473 201.39C269.873 200.617 270.433 200.03 271.153 199.63C271.886 199.23 272.739 199.03 273.713 199.03C274.353 199.03 274.973 199.143 275.573 199.37C276.186 199.597 276.693 199.917 277.093 200.33L276.513 201.49C276.113 201.103 275.673 200.817 275.193 200.63C274.726 200.443 274.266 200.35 273.813 200.35C272.773 200.35 271.966 200.677 271.393 201.33C270.819 201.983 270.533 202.937 270.533 204.19C270.533 205.43 270.819 206.39 271.393 207.07C271.966 207.75 272.773 208.09 273.813 208.09C274.253 208.09 274.706 208.003 275.173 207.83C275.653 207.657 276.099 207.37 276.513 206.97L277.093 208.11C276.679 208.537 276.166 208.863 275.553 209.09C274.939 209.317 274.326 209.43 273.713 209.43ZM281.65 209.25V200.51H278.01V199.21H286.93V200.51H283.27V209.25H281.65ZM288.612 209.25V199.21H293.452C294.612 199.21 295.478 199.437 296.052 199.89C296.638 200.33 296.932 200.983 296.932 201.85C296.932 202.49 296.705 203.03 296.252 203.47C295.812 203.897 295.238 204.15 294.532 204.23V203.99C295.358 204.017 296.018 204.257 296.512 204.71C297.005 205.163 297.252 205.75 297.252 206.47C297.252 207.337 296.932 208.017 296.292 208.51C295.665 209.003 294.772 209.25 293.612 209.25H288.612ZM290.152 208.15H293.532C294.238 208.15 294.778 208.003 295.152 207.71C295.538 207.403 295.732 206.97 295.732 206.41C295.732 205.85 295.538 205.423 295.152 205.13C294.778 204.837 294.238 204.69 293.532 204.69H290.152V208.15ZM290.152 203.59H293.352C294.005 203.59 294.512 203.443 294.872 203.15C295.232 202.857 295.412 202.45 295.412 201.93C295.412 201.41 295.232 201.01 294.872 200.73C294.512 200.437 294.005 200.29 293.352 200.29H290.152V203.59ZM299.444 213.79L299.064 212.45C299.691 212.303 300.211 212.13 300.624 211.93C301.051 211.743 301.404 211.49 301.684 211.17C301.964 210.85 302.204 210.45 302.404 209.97L302.924 208.79L302.884 209.47L298.504 199.21H300.264L303.884 208.03H303.364L306.944 199.21H308.644L304.004 210.09C303.737 210.73 303.444 211.263 303.124 211.69C302.804 212.13 302.457 212.483 302.084 212.75C301.724 213.03 301.324 213.25 300.884 213.41C300.444 213.57 299.964 213.697 299.444 213.79ZM315.007 209.43C313.434 209.43 312.194 208.977 311.287 208.07C310.381 207.15 309.927 205.877 309.927 204.25C309.927 203.197 310.127 202.283 310.527 201.51C310.927 200.723 311.487 200.117 312.207 199.69C312.927 199.25 313.754 199.03 314.687 199.03C315.607 199.03 316.381 199.223 317.007 199.61C317.634 199.997 318.114 200.55 318.447 201.27C318.781 201.977 318.947 202.817 318.947 203.79V204.39H311.167V203.37H317.887L317.547 203.63C317.547 202.563 317.307 201.73 316.827 201.13C316.347 200.53 315.634 200.23 314.687 200.23C313.687 200.23 312.907 200.583 312.347 201.29C311.787 201.983 311.507 202.923 311.507 204.11V204.29C311.507 205.543 311.814 206.497 312.427 207.15C313.054 207.79 313.927 208.11 315.047 208.11C315.647 208.11 316.207 208.023 316.727 207.85C317.261 207.663 317.767 207.363 318.247 206.95L318.807 208.09C318.367 208.517 317.807 208.85 317.127 209.09C316.461 209.317 315.754 209.43 315.007 209.43ZM323.681 209.25V200.51H320.041V199.21H328.961V200.51H325.301V209.25H323.681Z" fill="#256472"/>
</svg>
